<?xml version="1.0"?>
<svg width="48" height="48" xmlns="http://www.w3.org/2000/svg" xmlns:svg="http://www.w3.org/2000/svg" xmlns:xlink="http://www.w3.org/1999/xlink">
 <defs>
  <radialGradient xlink:href="#linearGradient5060" id="radialGradient6719" gradientUnits="userSpaceOnUse" gradientTransform="matrix(-2.774389,0,0,1.969706,112.7623,-872.8854)" cx="605.71429" cy="486.64789" fx="605.71429" fy="486.64789" r="117.14286"/>
  <linearGradient id="linearGradient5060">
   <stop offset="0" id="stop5062" stop-color="black"/>
   <stop offset="1" id="stop5064" stop-opacity="0" stop-color="black"/>
  </linearGradient>
  <radialGradient xlink:href="#linearGradient5060" id="radialGradient6717" gradientUnits="userSpaceOnUse" gradientTransform="matrix(2.774389,0,0,1.969706,-1891.633,-872.8854)" cx="605.71429" cy="486.64789" fx="605.71429" fy="486.64789" r="117.14286"/>
  <linearGradient id="linearGradient5048">
   <stop offset="0" id="stop5050" stop-opacity="0" stop-color="black"/>
   <stop id="stop5056" offset="0.5" stop-color="black"/>
   <stop offset="1" id="stop5052" stop-opacity="0" stop-color="black"/>
  </linearGradient>
  <linearGradient xlink:href="#linearGradient5048" id="linearGradient6715" x1="0.3787" y1="0" x2="0.3787" y2="1"/>
  <linearGradient id="linearGradient15662">
   <stop id="stop15664" offset="0" stop-color="#ffffff"/>
   <stop id="stop15666" offset="1" stop-color="#f8f8f8"/>
  </linearGradient>
  <radialGradient id="aigrd3" cx="20.8921" cy="64.5679" r="5.257" fx="20.8921" fy="64.5679" gradientUnits="userSpaceOnUse">
   <stop offset="0" id="stop15573" stop-color="#F0F0F0"/>
   <stop offset="1" id="stop15575" stop-color="#9a9a9a"/>
  </radialGradient>
  <radialGradient id="aigrd2" cx="20.8921" cy="114.5684" r="5.256" fx="20.8921" fy="114.5684" gradientUnits="userSpaceOnUse">
   <stop offset="0" id="stop15566" stop-color="#F0F0F0"/>
   <stop offset="1" id="stop15568" stop-color="#9a9a9a"/>
  </radialGradient>
  <linearGradient id="linearGradient269">
   <stop id="stop270" offset="0" stop-color="#a3a3a3"/>
   <stop id="stop271" offset="1" stop-color="#4c4c4c"/>
  </linearGradient>
  <linearGradient id="linearGradient259">
   <stop id="stop260" offset="0" stop-color="#fafafa"/>
   <stop id="stop261" offset="1" stop-color="#bbbbbb"/>
  </linearGradient>
  <radialGradient xlink:href="#linearGradient269" id="radialGradient15656" gradientUnits="userSpaceOnUse" gradientTransform="matrix(0.968273,0.000000,0.000000,1.032767,3.353553,0.646447)" cx="8.82442" cy="3.75613" fx="8.82442" fy="3.75613" r="37.75171"/>
  <radialGradient xlink:href="#linearGradient259" id="radialGradient15658" gradientUnits="userSpaceOnUse" gradientTransform="scale(0.960493,1.041132)" cx="33.96668" cy="35.73692" fx="33.96668" fy="35.73692" r="86.70845"/>
  <radialGradient xlink:href="#linearGradient15662" id="radialGradient15668" gradientUnits="userSpaceOnUse" gradientTransform="matrix(0.968273,0.000000,0.000000,1.032767,3.353553,0.646447)" cx="8.14356" cy="7.2679" fx="8.14356" fy="7.2679" r="38.1587"/>
  <radialGradient r="5.256" fy="114.5684" fx="20.8921" cy="114.5684" cx="20.8921" gradientTransform="matrix(0.229703,0.000000,0.000000,0.229703,4.613529,3.979808)" gradientUnits="userSpaceOnUse" id="radialGradient2283" xlink:href="#aigrd2"/>
  <radialGradient r="5.257" fy="64.5679" fx="20.8921" cy="64.5679" cx="20.8921" gradientTransform="matrix(0.229703,0.000000,0.000000,0.229703,4.613529,3.979808)" gradientUnits="userSpaceOnUse" id="radialGradient2285" xlink:href="#aigrd3"/>
  <pattern height="100" width="100" y="0" x="0" patternUnits="userSpaceOnUse" id="gridpattern">
   <image height="100" width="100" y="0" x="0" id="svg_1"/>
  </pattern>
  <symbol id="svg_27" xmlns:xlink="http://www.w3.org/1999/xlink" xmlns="http://www.w3.org/2000/svg" xmlns:svg="http://www.w3.org/2000/svg">
   <defs>
    <linearGradient id="svg_13">
     <stop stop-color="#ffffff" id="svg_26" offset="0"/>
     <stop stop-color="#ffffff" stop-opacity="0" id="svg_25" offset="1"/>
    </linearGradient>
    <linearGradient id="svg_14">
     <stop stop-color="#000000" id="svg_24" offset="0"/>
     <stop stop-color="#000000" stop-opacity="0" id="svg_23" offset="1"/>
    </linearGradient>
    <linearGradient id="svg_16">
     <stop stop-color="#f5a108" stop-opacity="0" id="svg_18" offset="0"/>
     <stop stop-color="#fefdc3" stop-opacity="0.74251" id="svg_17" offset="1"/>
    </linearGradient>
    <linearGradient y2="0.16936" x2="0.28723" y1="0.65323" x1="0.57801" id="svg_8" xlink:href="#svg_16"/>
    <linearGradient y2="-0.02982" x2="0.23038" y1="1.43454" x1="0.50039" id="svg_5" xlink:href="#svg_16"/>
    <radialGradient gradientUnits="userSpaceOnUse" gradientTransform="matrix(1.000000,0.000000,0.000000,0.351613,9.380517e-16,16.55413)" r="9.6875" fy="25.53125" fx="17.3125" cy="25.53125" cx="17.3125" id="svg_11" xlink:href="#svg_14"/>
    <linearGradient y2="-0.31977" x2="0.33527" y1="0.6907" x1="0.75989" id="svg_3" xlink:href="#svg_13"/>
   </defs>
   <metadata id="svg_12">image/svg+xmlFavourites (emblem)2005-02-01Jakub Steinerhttp://jimmac.musichall.cz/Andreas Nilsson &lt;nisses.mail@home.se&gt;</metadata>
   <path opacity="0.40909" fill="url(#svg_11)" fill-rule="nonzero" stroke-width="1.10534" marker-start="none" marker-mid="none" marker-end="none" stroke-miterlimit="4" stroke-dashoffset="0" d="m45.411591,38.4422a21.146959,7.43554 0 1 1 -42.293931,0a21.146959,7.43554 0 1 1 42.293931,0z" id="svg_10"/>
   <path fill="#d4572d" fill-rule="evenodd" stroke-width="1pt" id="svg_9" d="m22.261971,36.308949c0.057579,-0.086288 0.99678,1.111801 0.99678,1.111801c4.118069,-4.48069 14.628918,-12.852629 17.496227,-19.834829c-5.79855,6.43111 -15.272657,16.777399 -18.493008,18.723028z"/>
   <path fill="url(#svg_8)" fill-rule="evenodd" stroke-width="1pt" id="svg_7" d="m15.16564,7.4844c-4.79829,-0.23618 -7.03368,2.84624 -8.24285,5.77851c-1.19994,3.861409 0.49628,11.154719 8.80857,10.59987c4.74129,0 6.625789,-4.862249 9.12111,-6.12447c2.267769,-0.85746 2.44626,-0.9342 4.842199,-0.9342c3.329611,0 9.350809,-2.409659 9.350821,-4.80061c-1.023449,-1.91858 -3.740559,-5.33529 -8.733419,-4.75295c-3.178162,0.36989 -6.184881,2.64166 -6.970282,3.77211c-1.923969,-1.69696 -4.380579,-3.53826 -8.176149,-3.53826z"/>
   <path fill="#c71807" fill-rule="evenodd" stroke="#820000" stroke-miterlimit="4" id="svg_6" d="m23.92495,9.00322c8.30302,-8.30303 19.713322,-0.6501 19.638271,7.22427c-0.068623,7.198551 -5.554939,10.646021 -19.338051,23.450081c-14.42677,-11.91144 -19.50984,-14.65826 -19.43478,-23.199091c0.07505,-8.841059 9.84323,-15.476309 19.13456,-7.47526z"/>
   <path opacity="0.625" fill="url(#svg_5)" fill-rule="evenodd" stroke-width="1pt" id="svg_4" d="m5.07819,16.18862c-0.21799,7.179941 0.79464,6.042351 2.62428,8.31702c1.79868,2.2362 9.64191,0.82876 16.68224,-5.809311c7.12443,-6.71736 14.38658,-2.915259 17.906889,-6.655389c-2.622498,-4.49684 -10.807629,-9.9453 -18.343189,-2.39523c-9.65703,-8.72717 -18.65223,-0.71688 -18.87022,6.54291z"/>
   <path opacity="0.39205" fill="none" fill-rule="evenodd" stroke="url(#svg_3)" stroke-miterlimit="4" d="m24.02202,10.24914c7.8946,-8.5334 18.68387,-1.40411 18.613939,5.931471c-0.063919,6.70599 -5.574089,10.396669 -18.41411,22.324619c-13.43963,-11.096411 -18.57414,-14.054529 -18.50422,-22.01096c0.06992,-8.23612 9.64882,-14.73676 18.30439,-6.245131z" id="svg_2"/>
  </symbol>
 </defs>
 <metadata id="metadata4">image/svg+xmlGeneric TexttextplaintextregulardocumentJakub Steinerhttp://jimmac.musichall.cz</metadata>
 <g>
  <title>Layer 1</title>
  <g id="layer6">
   <g transform="matrix(2.105461e-2,0,0,2.086758e-2,42.85172,41.1536)" id="g6707" display="inline">
    <rect id="rect6709" width="1339.6335" height="478.35718" x="-1559.2523" y="-150.69685" stroke-dashoffset="0" stroke-miterlimit="4" stroke-linecap="round" fill-rule="nonzero" fill="url(#linearGradient6715)" opacity="0.40206"/>
    <path d="m-219.618759,-150.680374c0,0 0,478.330917 0,478.330917c142.874176,0.900452 345.400208,-107.169754 345.400146,-239.196297c0,-132.026516 -159.436817,-239.134575 -345.400146,-239.13459l0,-0.000015l0,0.000015l0,-0.000015l0,-0.000015z" id="path6711" stroke-dashoffset="0" stroke-miterlimit="4" marker-end="none" marker-mid="none" marker-start="none" stroke-linecap="round" fill-rule="nonzero" fill="url(#radialGradient6717)" opacity="0.40206"/>
    <path id="path6713" d="m-1559.252319,-150.680374c0,0 0,478.330917 0,478.330917c-142.874146,0.900452 -345.400146,-107.169754 -345.400146,-239.196297c0,-132.026516 159.436768,-239.134575 345.400146,-239.13459l0,-0.000015l0,0.000015l0,-0.000015l0,-0.000015z" stroke-dashoffset="0" stroke-miterlimit="4" marker-end="none" marker-mid="none" marker-start="none" stroke-linecap="round" fill-rule="nonzero" fill="url(#radialGradient6719)" opacity="0.40206"/>
   </g>
  </g>
  <g id="layer1" display="inline">
   <rect id="rect15391" width="34.875" height="40.92049" x="6.60355" y="3.64645" ry="1.14905" stroke-dashoffset="0" stroke-miterlimit="4" stroke-linejoin="round" stroke-linecap="round" stroke="url(#radialGradient15656)" fill-rule="nonzero" fill="url(#radialGradient15658)"/>
   <rect id="rect15660" width="32.77589" height="38.94638" x="7.66605" y="4.58395" ry="0.14905" rx="0.14905" stroke-dashoffset="0" stroke-miterlimit="4" stroke-linejoin="round" stroke-linecap="round" stroke="url(#radialGradient15668)" fill-rule="nonzero" fill="none"/>
   <g id="g2270">
    <g id="g1440" transform="matrix(0.229703 0 0 0.229703 4.96708 4.24497)" stroke-miterlimit="4" stroke="#000000" fill-rule="nonzero" fill="#ffffff">
     <radialGradient id="radialGradient1442" cx="20.8921" cy="114.5684" r="5.256" fx="20.8921" fy="114.5684" gradientUnits="userSpaceOnUse" gradientTransform="translate(2.81427 -0.165385)">
      <stop offset="0" id="stop1444" stop-color="#F0F0F0"/>
      <stop offset="1" id="stop1446" stop-color="#474747"/>
     </radialGradient>
     <path d="m26.24227,112.904617c0,1.973 -1.6,3.572014 -3.573,3.572014c-1.973999,0 -3.573,-1.600014 -3.573,-3.572014c0,-1.973999 1.6,-3.572998 3.573,-3.572998c1.973,0 3.573,1.599998 3.573,3.572998z" id="path1448"/>
     <radialGradient id="radialGradient1450" cx="20.8921" cy="64.5679" r="5.257" fx="20.8921" fy="64.5679" gradientUnits="userSpaceOnUse" gradientTransform="translate(2.81427 -0.165385)">
      <stop offset="0" id="stop1452" stop-color="#F0F0F0"/>
      <stop offset="1" id="stop1454" stop-color="#474747"/>
     </radialGradient>
     <path d="m26.24227,62.90461c0,1.973 -1.6,3.572998 -3.573,3.572998c-1.973999,0 -3.573,-1.599998 -3.573,-3.572998c0,-1.973999 1.6,-3.572998 3.573,-3.572998c1.973,0 3.573,1.599998 3.573,3.572998z" id="path1456"/>
    </g>
    <path d="m10.64146,29.914341c0,0.453199 -0.36752,0.820499 -0.82073,0.820499c-0.45343,0 -0.82073,-0.367531 -0.82073,-0.820499c0,-0.453442 0.36753,-0.82073 0.82073,-0.82073c0.45321,0 0.82073,0.367519 0.82073,0.82073z" id="path15570" stroke-miterlimit="4" fill-rule="nonzero" fill="url(#radialGradient2283)"/>
    <path d="m10.64146,18.42919c0,0.453199 -0.36752,0.820721 -0.82073,0.820721c-0.45343,0 -0.82073,-0.367521 -0.82073,-0.820721c0,-0.45344 0.36753,-0.82073 0.82073,-0.82073c0.45321,0 0.82073,0.367521 0.82073,0.82073z" id="path15577" stroke-miterlimit="4" fill-rule="nonzero" fill="url(#radialGradient2285)"/>
   </g>
   <path d="m11.50572,5.49428l0,37.906591" id="path15672" stroke-opacity="0.01754" stroke-miterlimit="4" stroke-width="0.98855" stroke="#000000" fill-rule="evenodd" fill-opacity="0.75" fill="none"/>
   <path d="m12.5,5.02052l0,38.017711" id="path15674" stroke-opacity="0.20468" stroke-miterlimit="4" stroke="#ffffff" fill-rule="evenodd" fill-opacity="0.75" fill="none"/>
  </g>
  <g id="layer5" display="inline" stroke="null">
   <g transform="matrix(0.909091,0.000000,0.000000,1.000000,2.363628,0.000000)" id="g2253" stroke="null">
    <rect id="rect15686" width="22" height="1" x="15" y="9" rx="0.15156" ry="0.06539" stroke-opacity="0.08187" stroke-dashoffset="0" stroke-miterlimit="4" stroke-linejoin="round" stroke-linecap="round" fill-rule="nonzero" fill-opacity="0.54971" fill="#9b9b9b"/>
    <rect id="rect15688" width="22" height="1" x="15" y="11" rx="0.15156" ry="0.06539" stroke-opacity="0.08187" stroke-dashoffset="0" stroke-miterlimit="4" stroke-linejoin="round" stroke-linecap="round" fill-rule="nonzero" fill-opacity="0.54971" fill="#9b9b9b"/>
    <rect id="rect15690" width="22" height="1" x="15" y="13" rx="0.15156" ry="0.06539" stroke-opacity="0.08187" stroke-dashoffset="0" stroke-miterlimit="4" stroke-linejoin="round" stroke-linecap="round" fill-rule="nonzero" fill-opacity="0.54971" fill="#9b9b9b"/>
    <rect id="rect15692" width="22" height="1" x="15" y="15" rx="0.15156" ry="0.06539" stroke-opacity="0.08187" stroke-dashoffset="0" stroke-miterlimit="4" stroke-linejoin="round" stroke-linecap="round" fill-rule="nonzero" fill-opacity="0.54971" fill="#9b9b9b"/>
    <rect id="rect15694" width="22" height="1" x="15" y="17" rx="0.15156" ry="0.06539" stroke-opacity="0.08187" stroke-dashoffset="0" stroke-miterlimit="4" stroke-linejoin="round" stroke-linecap="round" fill-rule="nonzero" fill-opacity="0.54971" fill="#9b9b9b"/>
    <rect id="rect15696" width="22" height="1" x="15" y="19" rx="0.15156" ry="0.06539" stroke-opacity="0.08187" stroke-dashoffset="0" stroke-miterlimit="4" stroke-linejoin="round" stroke-linecap="round" fill-rule="nonzero" fill-opacity="0.54971" fill="#9b9b9b"/>
    <rect id="rect15698" width="22" height="1" x="15" y="21" rx="0.15156" ry="0.06539" stroke-opacity="0.08187" stroke-dashoffset="0" stroke-miterlimit="4" stroke-linejoin="round" stroke-linecap="round" fill-rule="nonzero" fill-opacity="0.54971" fill="#9b9b9b"/>
    <rect id="rect15700" width="22" height="1" x="15" y="23" rx="0.15156" ry="0.06539" stroke-opacity="0.08187" stroke-dashoffset="0" stroke-miterlimit="4" stroke-linejoin="round" stroke-linecap="round" fill-rule="nonzero" fill-opacity="0.54971" fill="#9b9b9b"/>
    <rect id="rect15732" width="9.90001" height="1" x="14.99999" y="25" rx="0.0682" ry="0.06539" stroke-opacity="0.08187" stroke-dashoffset="0" stroke-miterlimit="4" stroke-linejoin="round" stroke-linecap="round" fill-rule="nonzero" fill-opacity="0.54971" fill="#9b9b9b"/>
    <rect id="rect15736" width="22" height="1" x="14.99999" y="29" rx="0.15156" ry="0.06539" stroke-opacity="0.08187" stroke-dashoffset="0" stroke-miterlimit="4" stroke-linejoin="round" stroke-linecap="round" fill-rule="nonzero" fill-opacity="0.54971" fill="#9b9b9b"/>
    <rect id="rect15738" width="22" height="1" x="14.99999" y="31" rx="0.15156" ry="0.06539" stroke-opacity="0.08187" stroke-dashoffset="0" stroke-miterlimit="4" stroke-linejoin="round" stroke-linecap="round" fill-rule="nonzero" fill-opacity="0.54971" fill="#9b9b9b"/>
    <rect id="rect15740" width="22" height="1" x="14.99999" y="33" rx="0.15156" ry="0.06539" stroke-opacity="0.08187" stroke-dashoffset="0" stroke-miterlimit="4" stroke-linejoin="round" stroke-linecap="round" fill-rule="nonzero" fill-opacity="0.54971" fill="#9b9b9b"/>
    <rect id="rect15742" width="22" height="1" x="14.99999" y="35" rx="0.15156" ry="0.06539" stroke-opacity="0.08187" stroke-dashoffset="0" stroke-miterlimit="4" stroke-linejoin="round" stroke-linecap="round" fill-rule="nonzero" fill-opacity="0.54971" fill="#9b9b9b"/>
    <rect id="rect15744" width="15.40001" height="1" x="14.99999" y="37" rx="0.1061" ry="0.06539" stroke-opacity="0.08187" stroke-dashoffset="0" stroke-miterlimit="4" stroke-linejoin="round" stroke-linecap="round" fill-rule="nonzero" fill-opacity="0.54971" fill="#9b9b9b"/>
   </g>
  </g>
  <g id="svg_29"/>
  <use x="91.05074" y="90.54129" transform="matrix(0.475855 0 0 0.494173 -21.49 -21.49)" xlink:href="#svg_27" id="heart"/>
  <g id="svg_30"/>
 </g>
</svg>