<?xml version="1.0" encoding="UTF-8" standalone="no"?>
<!-- Created with Inkscape (http://www.inkscape.org/) -->

<svg
   width="113.58562mm"
   height="21.172371mm"
   viewBox="0 0 113.58562 21.172371"
   version="1.1"
   id="hollywood-logo"
   xmlns="http://www.w3.org/2000/svg"
   xmlns:svg="http://www.w3.org/2000/svg">
  <defs
     id="defs2">
    <rect
       x="28.418221"
       y="21.860168"
       width="727.9436"
       height="145.37012"
       id="rect404" />
    <rect
       x="605.52667"
       y="183.62543"
       width="663.45612"
       height="170.50932"
       id="rect398" />
    <rect
       x="16.395126"
       y="15.302118"
       width="400.04111"
       height="96.184746"
       id="rect288" />
  </defs>
  <g
     id="layer1"
     transform="translate(-6.7075207,-7.9011471)">
    <text
       xml:space="preserve"
       transform="scale(0.26458333)"
       id="text396" />
    <g
       aria-label="H"
       id="text568"
       style="font-size:25.4px;fill:#ffffff;stroke:#000000;stroke-width:0.765">
      <g
         id="path442">
        <path
           style="color:#000000;stroke:none;"
           d="M 17.24754,28.303394 H 13.440021 V 21.345679 H 10.89754 v 6.957715 H 7.0900207 V 10.55564 H 10.89754 v 6.982519 h 2.542481 V 10.55564 h 3.807519 z"
           id="path435" />
        <path
           style="color:#000000;fill:#000000;stroke:none;"
           d="m 6.7070312,10.173828 v 18.511719 h 4.5722658 v -6.957031 h 1.777344 v 6.957031 h 4.574218 V 28.302734 10.173828 h -4.574218 v 6.982422 h -1.777344 v -6.982422 z m 0.765625,0.763672 h 3.0429688 v 6.982422 h 3.306641 V 10.9375 h 3.042968 v 16.982422 h -3.042968 v -6.957031 h -3.306641 v 6.957031 H 7.4726562 Z"
           id="path437" />
      </g>
    </g>
    <g
       aria-label="O"
       id="text572"
       style="font-size:25.4px;fill:#ffffff;stroke:#000000;stroke-width:0.765">
      <g
         id="path445">
        <path
           style="color:#000000;stroke:none;"
           d="M 26.213676,22.529802 V 12.372283 h -2.542481 v 10.157519 z m 3.807519,1.277442 -2.54248,2.54248 h -5.072559 l -2.54248,-2.54248 v -12.7 l 2.54248,-2.5424805 h 5.072559 l 2.54248,2.5424805 z"
           id="path441" />
        <path
           style="color:#000000;fill:#000000;stroke:none;"
           d="m 22.248047,8.1816406 -2.767578,2.7675784 v 13.015625 l 2.767578,2.767578 h 5.388672 l 2.767578,-2.767578 V 23.806641 10.949219 L 27.636719,8.1816406 Z m 0.316406,0.765625 h 4.755859 l 2.31836,2.3183594 v 12.382812 l -2.31836,2.31836 h -4.755859 l -2.318359,-2.31836 V 11.265625 Z m 0.724609,3.0429684 v 10.921875 h 3.306641 V 22.529297 11.990234 Z m 0.763672,0.763672 h 1.779297 v 9.392578 h -1.779297 z"
           id="path443" />
      </g>
    </g>
    <g
       aria-label="L"
       id="text576"
       style="font-size:25.4px;fill:#ffffff;stroke:#000000;stroke-width:0.765">
      <g
         id="path448">
        <path
           style="color:#000000;stroke:none;"
           d="m 42.009761,26.068608 h -8.89248 V 8.2836471 H 36.9248 V 22.261088 h 5.084961 z"
           id="path447" />
        <path
           style="color:#000000;fill:#000000;stroke:none;"
           d="M 32.734375,7.9003906 V 26.451172 h 9.658203 V 26.068359 21.878906 H 37.306641 V 7.9003906 Z M 33.5,8.6660156 h 3.042969 V 22.644531 h 5.083984 v 3.041016 H 33.5 Z"
           id="path449" />
      </g>
    </g>
    <g
       aria-label="L"
       id="text580"
       style="font-size:25.4px;fill:#ffffff;stroke:#000000;stroke-width:0.765">
      <g
         id="path451">
        <path
           style="color:#000000;stroke:none;"
           d="m 53.288245,26.06861 h -8.89248 V 8.283649 h 3.807519 V 22.26109 h 5.084961 z"
           id="path1011" />
        <path
           style="color:#000000;fill:#000000;stroke:none;"
           d="M 44.013672,7.9003906 V 26.451172 h 9.65625 V 26.068359 21.878906 H 48.585937 V 7.9003906 Z m 0.763672,0.765625 h 3.042968 V 22.644531 h 5.085938 v 3.041016 h -8.128906 z"
           id="path1013" />
      </g>
    </g>
    <g
       aria-label="Y"
       id="text584"
       style="font-size:25.4px;fill:#ffffff;stroke:#000000;stroke-width:0.765">
      <g
         id="path454">
        <path
           style="color:#000000;stroke:none;"
           d="m 64.561998,8.6523665 -3.80752,9.4009765 v 8.359179 H 56.946959 V 18.053343 L 53.127037,8.6523665 h 3.819922 l 1.897558,4.9609375 1.909961,-4.9609375 z"
           id="path1017" />
        <path
           style="color:#000000;fill:#000000;stroke:none;"
           d="m 52.558594,8.2695313 4.005859,9.8593747 v 8.666016 h 4.572266 V 18.126953 L 65.128906,8.2695313 H 64.5625 60.492187 L 58.845703,12.546875 57.210937,8.2695313 Z m 1.136718,0.765625 h 2.988282 l 2.160156,5.6464847 2.173828,-5.6464847 h 2.976563 l -3.623047,8.9433597 v 8.050781 h -3.041016 v -8.050781 z"
           id="path1019" />
      </g>
    </g>
    <g
       aria-label="W"
       id="text588"
       style="font-size:25.4px;fill:#ffffff;stroke:#000000;stroke-width:0.765">
      <g
         id="path457">
        <path
           style="color:#000000;stroke:none;"
           d="m 83.426785,10.754471 -3.299023,17.760156 h -4.067969 l -1.016992,-5.891113 -1.016992,5.891113 H 69.970242 L 66.683621,10.754471 h 3.782715 l 2.033984,9.835059 1.525489,-9.835059 h 2.033984 l 1.525488,9.835059 2.033985,-9.835059 z"
           id="path1023" />
        <path
           style="color:#000000;fill:#000000;stroke:none;"
           d="m 66.224609,10.371094 3.427735,18.52539 h 4.695312 l 0.695313,-4.02539 0.695312,4.02539 h 4.707031 l 3.441407,-18.52539 h -0.458985 -4.11914 l -1.669922,8.072265 -1.251953,-8.072265 h -2.689453 l -1.25,8.070312 -1.669922,-8.070312 z m 0.919922,0.765625 h 3.009766 l 1.970703,9.53125 0.753906,-0.01953 1.47461,-9.511718 h 1.378906 l 1.474609,9.511718 0.751953,0.01953 1.972657,-9.53125 h 3.035156 l -3.15625,16.996093 h -3.427735 l -0.96289,-5.574218 h -0.753906 l -0.962891,5.574218 h -3.414063 z"
           id="path1025" />
      </g>
    </g>
    <g
       aria-label="o"
       id="text592"
       style="font-size:25.4px;fill:#ffffff;stroke:#000000;stroke-width:0.765">
      <g
         id="path460">
        <path
           style="color:#000000;stroke:none;"
           d="M 91.478694,24.859088 V 14.701569 h -2.54248 v 10.157519 z m 3.80752,1.277442 -2.542481,2.505273 H 87.671175 L 85.128694,26.13653 v -12.7 l 2.542481,-2.542481 h 5.072558 l 2.542481,2.542481 z"
           id="path1029" />
        <path
           style="color:#000000;fill:#000000;stroke:none;"
           d="m 87.513672,10.511719 -2.767578,2.765625 v 13.019531 l 2.767578,2.726562 h 5.386719 l 2.767578,-2.726562 V 26.136719 13.277344 l -2.765625,-2.765625 z m 0.316406,0.765625 h 4.755859 l 2.31836,2.318359 v 12.378906 l -2.316406,2.285157 H 87.828125 L 85.511719,25.976562 V 13.595703 Z m 0.724609,3.041015 v 10.923828 h 3.306641 V 24.859375 14.318359 Z m 0.763672,0.765625 h 1.777344 v 9.392578 h -1.777344 z"
           id="path1031" />
      </g>
    </g>
    <g
       aria-label="o"
       id="text596"
       style="font-size:25.4px;fill:#ffffff;stroke:#000000;stroke-width:0.765">
      <g
         id="path439">
        <path
           style="color:#000000;stroke:none;"
           d="M 103.96315,24.908303 V 14.750784 h -2.54248 v 10.157519 z m 3.80752,1.277442 -2.54248,2.505273 h -5.07256 l -2.542477,-2.505273 v -12.7 l 2.542477,-2.54248 h 5.07256 l 2.54248,2.54248 z"
           id="path1075" />
        <path
           style="color:#000000;fill:#000000;stroke:none;"
           d="m 99.998047,10.560547 -2.767578,2.767578 v 13.017578 l 2.767578,2.728516 h 5.386723 l 2.76757,-2.728516 V 26.185547 13.328125 l -2.76562,-2.767578 z m 0.316403,0.765625 h 4.75586 l 2.31836,2.318359 v 12.38086 l -2.3164,2.283203 h -4.75977 l -2.316406,-2.283203 v -12.38086 z m 0.72461,3.042969 v 10.921875 h 3.30664 V 24.908203 14.369141 Z m 0.76367,0.763672 h 1.77735 v 9.392578 h -1.77735 z"
           id="path1077" />
      </g>
    </g>
    <g
       aria-label="d"
       id="text600"
       style="font-size:25.4px;fill:#ffffff;stroke:#000000;stroke-width:0.765">
      <g
         id="path436">
        <path
           style="color:#000000;stroke:none;"
           d="M 116.10312,22.269158 V 12.111639 h -2.54248 v 10.157519 z m 3.80752,1.277442 -2.54248,2.54248 h -7.61504 V 8.3041194 h 7.61504 l 2.54248,2.5424806 z"
           id="path1123" />
        <path
           style="color:#000000;fill:#000000;stroke:none;"
           d="m 109.37109,7.921875 v 18.548828 h 8.15625 l 2.76563,-2.765625 V 23.546875 10.6875 l -2.76563,-2.765625 z m 0.76368,0.765625 h 7.07421 l 2.31836,2.318359 v 12.382813 l -2.31836,2.318359 h -7.07421 z m 3.04296,3.041016 v 10.923828 h 3.3086 V 22.269531 11.728516 Z m 0.76563,0.765625 h 1.77734 v 9.392578 h -1.77734 z"
           id="path1125" />
      </g>
    </g>
  </g>
</svg>
