<svg height="64" viewBox="0 0 64 64" width="64" xmlns="http://www.w3.org/2000/svg" xmlns:xlink="http://www.w3.org/1999/xlink"><linearGradient id="a" gradientUnits="userSpaceOnUse" x1="30.429985" x2="30.429985" y1="56.067868" y2="58.71395600006"><stop offset="0" stop-opacity=".27451"/><stop offset="1" stop-opacity="0"/></linearGradient><linearGradient id="b"><stop offset="0" stop-opacity=".313726"/><stop offset=".222222" stop-opacity=".27451"/><stop offset="1" stop-opacity="0"/></linearGradient><radialGradient id="c" cx="450.908936" cy="189.579361" gradientTransform="matrix(.00000035 -.156265 -.281277 -.0000002 106.907377 127.190665)" gradientUnits="userSpaceOnUse" r="21.166656" xlink:href="#b"/><radialGradient id="d" cx="450.908936" cy="189.579361" gradientTransform="matrix(-.00000035 .156265 .281277 .0000002 -43.401308 -15.054958)" gradientUnits="userSpaceOnUse" r="21.166656" xlink:href="#b"/><radialGradient id="e" cx="450.908936" cy="189.579361" gradientTransform="matrix(-.00000035 -.156265 .281277 -.0000002 -43.401308 127.190665)" gradientUnits="userSpaceOnUse" r="21.166656" xlink:href="#b"/><radialGradient id="f" cx="450.908936" cy="189.579361" gradientTransform="matrix(.00000035 .156265 -.281277 .0000002 106.907373 -15.054959)" gradientUnits="userSpaceOnUse" r="21.166656" xlink:href="#b"/><linearGradient id="g" gradientTransform="matrix(.144147 0 0 .381253 -9.818413 62.352984)" gradientUnits="userSpaceOnUse" x1="306.752655" x2="305.954529" y1="-16.485477" y2="-141.414581"><stop offset="0" stop-color="#b0bec5"/><stop offset="1" stop-color="#cfd8dc"/></linearGradient><linearGradient id="h" gradientUnits="userSpaceOnUse" x1="31.753048" x2="31.753048" y1="53.42177999994" y2="11.08438199987"><stop offset="0" stop-color="#42a5f5"/><stop offset="1" stop-color="#9fa8da"/></linearGradient><linearGradient id="i" gradientUnits="userSpaceOnUse" x1="44.247837" x2="44.247837" y1="24.82299556486" y2="17.18105956486"><stop offset="0" stop-color="#fdd835"/><stop offset="1" stop-color="#fff176"/></linearGradient><linearGradient id="j" gradientUnits="userSpaceOnUse" x1="29.798341" x2="29.798341" y1="56.03257650719" y2="36.92773456486"><stop offset="0" stop-color="#37474f"/><stop offset="1" stop-color="#455a64"/></linearGradient><linearGradient id="k"><stop offset="0" stop-color="#b0bec5"/><stop offset="1" stop-color="#cfd8dc"/></linearGradient><linearGradient id="l" gradientUnits="userSpaceOnUse" x1="31.753048" x2="31.753048" xlink:href="#k" y1="56.067868" y2="8.438296"/><path d="m9.261719 56.214844h44.984375v2.5h-44.984375zm0 0" fill="url(#a)"/><path d="m54.246094 56.066406h5.289062v-2.644531h-5.289062zm0 0" fill="url(#c)"/><path d="m9.261719 56.066406h-5.292969v2.648438h5.292969zm0 0" fill="url(#d)"/><path d="m9.261719 56.066406h-5.292969v-2.644531h5.292969zm0 0" fill="url(#e)"/><path d="m54.246094 56.066406h5.289062v2.648438h-5.289062zm0 0" fill="url(#f)"/><path d="m6.613281 8.4375h50.277344c1.460937 0 2.644531 1.121094 2.644531 2.5v42.632812c0 1.378907-1.183594 2.496094-2.644531 2.496094h-50.277344c-1.460937 0-2.644531-1.117187-2.644531-2.496094v-42.632812c0-1.378906 1.183594-2.5 2.644531-2.5zm0 0" fill="url(#g)"/><path d="m7.9375 11.085938h47.628906c.730469 0 1.324219.589843 1.324219 1.320312v39.691406c0 .730469-.59375 1.324219-1.324219 1.324219h-47.628906c-.730469 0-1.324219-.59375-1.324219-1.324219v-39.691406c0-.730469.59375-1.320312 1.324219-1.320312zm0 0" fill="url(#h)"/><path d="m44.246094 17.179688c-.695313 0-1.347656.1875-1.910156.507812 1.144531.660156 1.910156 1.894531 1.910156 3.316406 0 1.417969-.765625 2.652344-1.910156 3.3125.5625.320313 1.214843.507813 1.910156.507813 2.117187 0 3.824218-1.707031 3.824218-3.820313 0-2.117187-1.707031-3.824218-3.824218-3.824218zm0 0" fill="url(#i)"/><path d="m6.613281 8.4375c-1.464843 0-2.644531 1.117188-2.644531 2.5v.660156c0-1.382812 1.179688-2.496094 2.644531-2.496094h50.277344c1.464844 0 2.644531 1.113282 2.644531 2.496094v-.660156c0-1.382812-1.179687-2.5-2.644531-2.5zm0 0" fill="#fff" fill-opacity=".588235"/><path d="m6.613281 56.085938c-1.464843 0-2.644531-1.113282-2.644531-2.5v-.660157c0 1.382813 1.179688 2.5 2.644531 2.5h50.277344c1.464844 0 2.644531-1.117187 2.644531-2.5v.660157c0 1.386718-1.179687 2.5-2.644531 2.5zm0 0" fill-opacity=".235294"/><path d="m52.901198-147.506445h402.180344c11.686384 0 21.15423 8.967893 21.15423 19.99809v341.029933c0 11.030197-9.467846 19.966843-21.15423 19.966843h-402.180344c-11.686384 0-21.15423-8.936646-21.15423-19.966843v-341.029933c0-11.030197 9.467846-19.99809 21.15423-19.99809zm0 0" fill="none" stroke="#212121" stroke-linecap="round" stroke-width="3" transform="matrix(.125012 0 0 .125012 0 26.877566)"/><path d="m7.9375 11.25c-.730469 0-1.324219.589844-1.324219 1.324219v.496093c0-.734374.59375-1.324218 1.324219-1.324218h47.628906c.734375 0 1.324219.589844 1.324219 1.324218v-.496093c0-.734375-.589844-1.324219-1.324219-1.324219zm0 0" fill-opacity=".235294"/><path d="m7.9375 54.097656c-.730469 0-1.324219-.589844-1.324219-1.324218v-.496094c0 .734375.59375 1.324218 1.324219 1.324218h47.628906c.734375 0 1.324219-.589843 1.324219-1.324218v.496094c0 .734374-.589844 1.324218-1.324219 1.324218zm0 0" fill="#fff" fill-opacity=".588235"/><path d="m63.493937-126.320968h380.994866c5.843192 0 10.592739 4.718299 10.592739 10.561491v317.50093c0 5.843192-4.749547 10.592739-10.592739 10.592739h-380.994866c-5.843192 0-10.592739-4.749547-10.592739-10.592739v-317.50093c0-5.843192 4.749547-10.561491 10.592739-10.561491zm0 0" fill="none" stroke="#212121" stroke-linecap="round" stroke-linejoin="round" stroke-width="3" transform="matrix(.125012 0 0 .125012 0 26.877566)"/><path d="m7.9375 11.085938c-.730469 0-1.324219.589843-1.324219 1.320312v10.738281c14.777344-1.851562 30.191407-2.828125 46.050781-2.828125 1.410157 0 2.820313.007813 4.226563.023438v-7.933594c0-.730469-.589844-1.320312-1.324219-1.320312zm0 0" fill="#fff" fill-opacity=".078431"/><path d="m13.539062 36.746094c-.136718 0-.273437.003906-.410156.019531-2.722656.277344-4.589844 1.398437-6.515625 2.765625v12.566406c0 .734375.59375 1.324219 1.324219 1.324219h47.628906c.734375 0 1.324219-.589844 1.324219-1.324219v-7.953125c-6.953125 1.886719-9.929687-3.023437-13.511719-3.960937-4.621094-1.210938-10.683594 4.289062-15.347656 3.726562-4.519531-.542968-10.234375-7.152344-14.492188-7.164062zm0 0" fill="url(#j)"/><path d="m31.699219 21.621094c-.378907.015625-.738281.1875-.988281.476562l-7.9375 9.261719c-.761719.890625-.128907 2.265625 1.042968 2.265625h3.917969v14.503906c0 .757813.613281 1.371094 1.371094 1.371094h5.292969c.757812 0 1.371093-.613281 1.371093-1.371094v-14.503906h3.921875c1.171875 0 1.804688-1.375 1.042969-2.265625l-7.941406-9.261719c-.269531-.316406-.671875-.492187-1.09375-.476562zm0 0" fill="url(#l)"/><path d="m31.777344 21.621094c-.023438 0-.050782 0-.078125 0-.378907.015625-.738281.1875-.988281.476562l-7.9375 9.261719c-.320313.375-.394532.835937-.285157 1.242187.050781-.1875.144531-.367187.285157-.53125l7.9375-9.261718c.25-.289063.609374-.464844.988281-.476563.421875-.019531.824219.160157 1.09375.476563l7.941406 9.261718c.140625.164063.234375.34375.285156.53125.105469-.40625.035157-.867187-.285156-1.242187l-7.941406-9.261719c-.253907-.296875-.625-.46875-1.015625-.476562zm0 0" fill="#fff" fill-opacity=".588235"/><path d="m253.569535-42.047766c-3.03096.124988-5.905686 1.499857-7.905495 3.812136l-63.493936 74.086675c-6.093169 7.12432-1.031152 18.123269 8.342953 18.123269h31.340757v116.020171c0 6.061921 4.905782 10.967702 10.967703 10.967702h42.339706c6.061922 0 10.967703-4.905781 10.967703-10.967702v-116.020171h31.372004c9.374105 0 14.436122-10.998949 8.342953-18.123269l-63.525183-74.086675c-2.156044-2.531008-5.374487-3.937124-8.749165-3.812136zm0 0" fill="none" stroke="#212121" stroke-linecap="round" stroke-linejoin="round" stroke-width="3" transform="matrix(.125012 0 0 .125012 0 26.877566)"/></svg>
