<svg height="48" width="48" xmlns="http://www.w3.org/2000/svg" xmlns:xlink="http://www.w3.org/1999/xlink"><linearGradient id="a"><stop offset="0" stop-color="#f6e1cf"/><stop offset=".5" stop-color="#e19d56"/><stop offset="1" stop-color="#f4dcb7"/></linearGradient><linearGradient id="b"><stop offset="0" stop-color="#8f5402"/><stop offset="1" stop-color="#6e4001"/></linearGradient><linearGradient id="c"><stop offset="0" stop-color="#fff"/><stop offset="1" stop-color="#fff" stop-opacity=".299639"/></linearGradient><linearGradient id="d" gradientUnits="userSpaceOnUse" x1="24" x2="24" xlink:href="#c" y1="7.400009" y2="38.329697"/><radialGradient id="e" cx="-14.822968" cy="20.156464" gradientTransform="matrix(2.45184 1.174729 -1.324281 2.80558 46.03865 -21.18657)" gradientUnits="userSpaceOnUse" r="5.329383" xlink:href="#a"/><radialGradient id="f" cx="-3.06520520945" cy="18.30545917178" gradientUnits="userSpaceOnUse" r="18.95728657537" xlink:href="#a"/><linearGradient id="g" gradientUnits="userSpaceOnUse" x1="-10.735215" x2="-9.25" xlink:href="#b" y1="11.428152" y2="18.440943"/><linearGradient id="h" gradientUnits="userSpaceOnUse" x1="-10.153608" x2="-7.958656" xlink:href="#b" y1="10.91142" y2="18.145666"/><linearGradient id="i" gradientUnits="userSpaceOnUse" x1="-5.268006" x2="-12.272349" xlink:href="#c" y1="20.641153" y2="8.685577"/><radialGradient id="j" cx="-6" cy="37.75" gradientTransform="matrix(1 0 0 .267857 0 27.63839)" gradientUnits="userSpaceOnUse" r="14"><stop offset="0"/><stop offset="1" stop-opacity="0"/></radialGradient><linearGradient id="k" gradientUnits="userSpaceOnUse" x1="29.064308" x2="12.860207" xlink:href="#c" y1="39.4202" y2="2.491629"/><radialGradient id="l" cx="24.00001" cy="32.820721" gradientTransform="matrix(2.783877 0 0 1.961686 -42.81308 -33.63393)" gradientUnits="userSpaceOnUse" r="14.999994" xlink:href="#a"/><radialGradient id="m" cx="23.987946" cy="30.12611" gradientTransform="matrix(1.838239 0 0 .855268 -20.10762 3.134087)" gradientUnits="userSpaceOnUse" r="10.987951"><stop offset="0" stop-color="#3d280a"/><stop offset="1" stop-color="#3d280a" stop-opacity="0"/></radialGradient><radialGradient id="n" cx="24" cy="13.057613" gradientTransform="matrix(1.635062 0 0 1.830454 -15.24149 -12.15138)" gradientUnits="userSpaceOnUse" r="16.971834"><stop offset="0" stop-color="#a15702"/><stop offset="1" stop-color="#683c00"/></radialGradient><path d="m8 37.75a14 3.75 0 1 1 -28 0 14 3.75 0 1 1 28 0z" fill="url(#j)" fill-rule="evenodd" opacity=".484536" transform="matrix(1.535714 0 0 1.51296 33.46429 -17.11425)"/><g stroke-linecap="round" stroke-linejoin="round"><path d="m-4.5 14.75a4.75 4.75 0 1 1 -9.5 0 4.75 4.75 0 1 1 9.5 0z" fill="url(#g)" fill-rule="evenodd" stroke="#3d280a" stroke-width=".837403" transform="matrix(1.042105 0 0 1.368421 16.13946 .81579)"/><path d="m-4.5 14.75a4.75 4.75 0 1 1 -9.5 0 4.75 4.75 0 1 1 9.5 0z" fill="none" opacity=".2" stroke="url(#i)" stroke-width="1.009182" transform="matrix(.842105 0 0 1.165992 14.28947 3.84008)"/><path d="m-4.5 14.75a4.75 4.75 0 1 1 -9.5 0 4.75 4.75 0 1 1 9.5 0z" fill="url(#f)" fill-rule="evenodd" stroke="#50340d" stroke-width="1.146466" transform="matrix(.799453 0 0 .951666 14.62707 7.030045)"/><path d="m-4.5 14.75a4.75 4.75 0 1 1 -9.5 0 4.75 4.75 0 1 1 9.5 0z" fill="url(#h)" fill-rule="evenodd" stroke="#3d280a" stroke-width=".837404" transform="matrix(1.042104 0 0 1.368421 51.13946 .81579)"/><path d="m-4.5 14.75a4.75 4.75 0 1 1 -9.5 0 4.75 4.75 0 1 1 9.5 0z" fill="none" opacity=".2" stroke="url(#i)" stroke-width="1.009182" transform="matrix(.842105 0 0 1.165992 49.28947 3.80162)"/><path d="m-4.5 14.75a4.75 4.75 0 1 1 -9.5 0 4.75 4.75 0 1 1 9.5 0z" fill="url(#e)" fill-rule="evenodd" stroke="#50340d" stroke-width="1.153486" transform="matrix(.789752 0 0 .951666 48.02639 7.030045)"/><path d="m37.5 23.5c7.5 8 0 19-13.5 18.999981s-21-10.999981-13.5-18.999981c-4-10.5 4-18.0000082 13.5-18.0000041s17.5 7.5000041 13.5 18.0000041z" fill="url(#n)" fill-rule="evenodd" stroke="#3d280a"/><path d="m36.5 23.5c7 8 .203501 18.000017-12.500001 18-12.703502-.000019-19.499999-10-12.499999-18-4-10.5 3.560498-16.9999947 12.499999-16.9999909 8.9395.0000039 16.500001 6.4999909 12.500001 16.9999909z" fill="none" opacity=".381443" stroke="url(#d)" stroke-width=".999999"/><path d="m17.838217 10.504844c-3.573243.2204-6.338217 3.597364-6.338217 7.995156 0 1.915169.480445 3.910093 1.384633 5.308394-2.11327 1.765252-3.384633 3.191606-3.3829353 6.530833.0028511 5.607806 5.4983023 10.160773 14.4982943 10.159075 9.000008-.001698 14.494912-4.551269 14.498295-10.159075.001713-3.339227-1.269665-4.765581-3.382935-6.530833.904188-1.398301 1.384648-3.393226 1.384648-5.308394 0-4.539658-2.96593-7.995156-6.700689-7.995156-2.450936 0-4.61225 1.586945-5.799319 3.960829-1.187068-2.373884-3.348382-3.960829-5.799318-3.960829-.116711 0-.247191-.00711-.362457 0z" fill="url(#l)" fill-rule="evenodd" stroke="#7a4f13" stroke-width="1.003395"/></g><path d="m-9.5 7.25a1.5 1.75 0 1 1 -3 0 1.5 1.75 0 1 1 3 0z" fill-rule="evenodd" transform="matrix(1.333333 0 0 1.428571 34.66666 11.14286)"/><path d="m13.499995 26.6c6.29277 2.4 14.683131 2.4 20.975901 0" fill="none" opacity=".881443" stroke="url(#m)" stroke-linecap="round"/><path d="m18.263225 11.504636c-3.475804-.092332-5.923683 3.31225-5.901051 7.462085.009748 1.787449.796003 3.728209 1.637826 5.033279-1.967512 1.647555-3.363465 2.902907-3.4983 6.016575-.22665 5.23391 4.971252 9.464175 13.498304 9.481726 8.398429.017287 13.646441-4.096531 13.498306-9.481726-.085698-3.115408-1.530798-4.36902-3.49831-6.016575.841824-1.30507 1.628719-3.245826 1.637851-5.033279.021758-4.258738-2.445472-7.777974-6.238523-7.462085-2.274016.189382-3.399328 1.495364-4.399328 3.495364-.5.5-1.5.5-2 0-1-2-2-3.5-4.736775-3.495364z" style="opacity:.4;fill:none;stroke-width:1.003;stroke-linecap:round;stroke-linejoin:round;stroke:url(#k)"/><path d="m-9.5 7.25a1.5 1.75 0 1 1 -3 0 1.5 1.75 0 1 1 3 0z" fill-rule="evenodd" transform="matrix(1.333333 0 0 1.428571 42.66666 11.14286)"/></svg>