<?xml version="1.0" encoding="UTF-8" standalone="no"?>
<!-- Created with Inkscape (http://www.inkscape.org/) -->

<svg
   width="140.52171mm"
   height="19.518288mm"
   viewBox="0 0 140.52171 19.518288"
   version="1.1"
   id="svg5"
   inkscape:version="1.2 (dc2aeda, 2022-05-15)"
   sodipodi:docname="originull.svg"
   inkscape:export-filename="originull.png"
   inkscape:export-xdpi="96"
   inkscape:export-ydpi="96"
   xmlns:inkscape="http://www.inkscape.org/namespaces/inkscape"
   xmlns:sodipodi="http://sodipodi.sourceforge.net/DTD/sodipodi-0.dtd"
   xmlns="http://www.w3.org/2000/svg"
   xmlns:svg="http://www.w3.org/2000/svg">
  <sodipodi:namedview
     id="namedview7"
     pagecolor="#ffffff"
     bordercolor="#000000"
     borderopacity="0.25"
     inkscape:showpageshadow="2"
     inkscape:pageopacity="0"
     inkscape:pagecheckerboard="0"
     inkscape:deskcolor="#d1d1d1"
     inkscape:document-units="mm"
     showgrid="false"
     inkscape:zoom="0.914906"
     inkscape:cx="227.89226"
     inkscape:cy="502.23739"
     inkscape:window-width="1390"
     inkscape:window-height="1205"
     inkscape:window-x="892"
     inkscape:window-y="62"
     inkscape:window-maximized="0"
     inkscape:current-layer="path545" />
  <defs
     id="defs2">
    <rect
       x="43.720337"
       y="40.441315"
       width="695.15338"
       height="111.48686"
       id="rect255" />
  </defs>
  <g
     inkscape:label="Layer 1"
     inkscape:groupmode="layer"
     id="layer1"
     transform="translate(-15.070379,-15.929365)">
    <g
       aria-label="originull:~$"
       transform="matrix(0.26458333,0,0,0.26458333,2.3135346,2.8919182)"
       id="text253"
       style="white-space:pre;fill:#ffffff">
      <g
         id="path533">
        <path
           style="color:#000000;-inkscape-font-specification:'Hack, Normal';fill:#00a400;-inkscape-stroke:none"
           d="m 66.251964,107.56123 q -8.531254,0 -13.05209,-5.50521 -4.484377,-5.54167 -4.484377,-15.895842 0,-10.39063 4.520836,-15.932299 4.520835,-5.54167 12.979173,-5.54167 8.458337,0 12.942714,5.54167 4.520836,5.505211 4.520836,15.968757 0,10.39063 -4.484378,15.895844 -4.484377,5.46875 -12.942714,5.46875 z m -0.03646,-5.6875 q 4.994794,0 7.656253,-4.083338 2.697918,-4.083335 2.697918,-11.703131 0,-7.583337 -2.697918,-11.630214 -2.661459,-4.083335 -7.656253,-4.083335 -5.031253,0 -7.729171,4.083335 -2.661459,4.046877 -2.661459,11.630214 0,7.619796 2.697918,11.703131 2.697917,4.083338 7.692712,4.083338 z"
           id="path560" />
        <path
           style="color:#000000;-inkscape-font-specification:'Hack, Normal';fill:#004400;-inkscape-stroke:none"
           d="m 66.214844,64.185547 c -5.748082,0 -10.254798,1.913769 -13.365235,5.726562 -3.110645,3.813048 -4.634765,9.248453 -4.634765,16.248047 0,6.974958 1.510331,12.39812 4.595703,16.210934 h 0.002 v 0.002 c 3.111783,3.78934 7.644406,5.6875 13.439453,5.6875 5.746644,0 10.242762,-1.88538 13.330078,-5.65039 v -0.002 c 3.086864,-3.789562 4.597656,-9.211925 4.597656,-16.210934 0,-7.045662 -1.522145,-12.493136 -4.632812,-16.283204 -3.086282,-3.813942 -7.58395,-5.728515 -13.332031,-5.728515 z m 0,1 c 5.52969,0 9.661806,1.782478 12.554687,5.357422 h 0.002 v 0.002 c 2.915289,3.550069 4.408204,8.748662 4.408203,15.652344 0,6.85515 -1.480745,12.029365 -4.373046,15.580077 -2.891763,3.52518 -7.024705,5.28321 -12.554688,5.28321 -5.579947,0 -9.750023,-1.77134 -12.666016,-5.32227 -2.892035,-3.575954 -4.371093,-8.749631 -4.371093,-15.578127 0,-6.854565 1.491073,-12.041351 4.408203,-15.617187 2.917338,-3.576092 7.062106,-5.357422 12.591797,-5.357422 z m 0,4.6875 c -3.489431,0 -6.269071,1.467103 -8.146485,4.308594 -1.853088,2.81771 -2.74414,6.792203 -2.74414,11.90625 0,5.13887 0.903785,9.136947 2.78125,11.978515 1.876842,2.840624 4.643262,4.306644 8.109375,4.306644 3.464599,0 6.221805,-1.46699 8.074218,-4.306644 l 0.002,-0.0039 c 1.875961,-2.84136 2.779297,-6.837759 2.779296,-11.974609 0,-5.114848 -0.904636,-9.090353 -2.783203,-11.908204 -1.852408,-2.838932 -4.608112,-4.30664 -8.072265,-4.30664 z m 0,1 c 3.193606,0 5.542106,1.255071 7.238281,3.857422 l 0.002,0.002 v 0.002 c 1.718654,2.57798 2.615235,6.357257 2.615234,11.353516 0,5.020847 -0.895478,8.824861 -2.615234,11.427734 h -0.002 v 0.002 c -1.696175,2.602351 -4.044675,3.855471 -7.238281,3.855471 -3.193607,0 -5.555014,-1.25361 -7.275391,-3.857424 -1.719756,-2.602873 -2.615234,-6.406887 -2.615234,-11.427734 0,-4.99706 0.884558,-8.777349 2.580078,-11.355469 1.719807,-2.602951 4.091647,-3.859375 7.310547,-3.859375 z"
           id="path562" />
      </g>
      <g
         id="path535">
        <path
           style="color:#000000;-inkscape-font-specification:'Hack, Normal';fill:#00a400;-inkscape-stroke:none"
           d="m 99.684273,65.670585 h 6.088547 l 0.65625,7.984379 q 1.71354,-4.338544 5.14063,-6.63542 3.46354,-2.333335 8.27604,-2.333335 5.03125,0 8.75001,2.552085 v 6.85417 q -3.93751,-3.208335 -9.33334,-3.208335 -6.19792,0 -9.51563,3.97396 -3.31771,3.937502 -3.31771,11.338547 v 20.307304 h -6.744797 z"
           id="path566" />
        <path
           style="color:#000000;-inkscape-font-specification:'Hack, Normal';fill:#004400;-inkscape-stroke:none"
           d="m 119.8457,64.185547 c -3.28914,0 -6.15666,0.804411 -8.55468,2.419922 v -0.002 c -1.92885,1.292732 -3.35823,3.176839 -4.4961,5.386718 l -0.56054,-6.820312 h -7.050786 v 0.5 41.333985 h 7.746096 V 86.197266 c 0,-4.859313 1.08688,-8.510628 3.19922,-11.017579 l 0.002,-0.002 c 2.11364,-2.531719 5.10578,-3.792968 9.13086,-3.792968 3.49812,0 6.47928,1.027463 9.01758,3.095703 l 0.8164,0.664062 v -8.169922 l -0.21679,-0.148437 C 126.31305,65.06521 123.28446,64.1855 119.84575,64.1855 Z m 0,1 c 3.1787,0 5.90175,0.809434 8.25,2.361328 V 73.25 c -2.55089,-1.824325 -5.47619,-2.865234 -8.83398,-2.865234 -4.23881,0 -7.58847,1.385455 -9.89844,4.152343 -2.31011,2.742945 -3.43359,6.65266 -3.43359,11.660157 v 19.806644 h -5.7461 V 66.169922 h 5.12891 l 0.61914,7.52539 0.96289,0.142579 c 1.1116,-2.814474 2.75733,-4.930696 4.95313,-6.402344 v -0.002 h 0.002 c 2.22003,-1.495599 4.86857,-2.248047 7.99609,-2.248047 z"
           id="path568" />
      </g>
      <g
         id="path537">
        <path
           style="color:#000000;-inkscape-font-specification:'Hack, Normal';fill:#00a400;-inkscape-stroke:none"
           d="m 152.69472,58.26954 q -1.09375,0 -1.09375,-1.093751 v -6.307294 q 0,-1.093751 1.09375,-1.093751 h 5.25 q 1.09375,0 1.09375,1.093751 v 6.307294 q 0,1.093751 -1.09375,1.093751 z m 12.25,48.52606 q -6.01563,0 -9.33334,-3.86458 -3.28125,-3.901044 -3.28125,-10.937506 V 70.920587 h -8.93229 v -5.250002 h 15.64063 v 26.322929 q 0,4.447919 1.67708,6.781253 1.67709,2.333333 4.88542,2.333333 h 7.83855 v 5.6875 z"
           id="path572" />
        <path
           style="color:#000000;-inkscape-font-specification:'Hack, Normal';fill:#004400;-inkscape-stroke:none"
           d="m 152.69531,49.275391 c -0.44791,0 -0.87368,0.119779 -1.17383,0.419921 -0.30014,0.300143 -0.41992,0.725912 -0.41992,1.173829 v 6.30664 c 0,0.447917 0.11978,0.873686 0.41992,1.173828 0.30015,0.300143 0.72592,0.419922 1.17383,0.419922 h 5.25 c 0.44792,0 0.87369,-0.119779 1.17383,-0.419922 0.30014,-0.300142 0.41992,-0.725911 0.41992,-1.173828 v -6.30664 c 0,-0.447917 -0.11978,-0.873686 -0.41992,-1.173829 -0.30014,-0.300142 -0.72591,-0.419921 -1.17383,-0.419921 z m 0,1 h 5.25 c 0.28125,0 0.40236,0.06251 0.4668,0.126953 0.0644,0.06444 0.12695,0.185546 0.12695,0.466797 v 6.30664 c 0,0.28125 -0.0625,0.402357 -0.12695,0.466797 -0.0644,0.06444 -0.18555,0.126953 -0.4668,0.126953 h -5.25 c -0.28125,0 -0.40235,-0.06251 -0.46679,-0.126953 -0.0644,-0.06444 -0.12696,-0.185547 -0.12696,-0.466797 v -6.30664 c 0,-0.281251 0.0625,-0.402357 0.12696,-0.466797 0.0644,-0.06444 0.18554,-0.126953 0.46679,-0.126953 z m -9.79687,14.894531 v 6.25 h 8.93164 v 20.574219 c 0,4.76869 1.11561,8.543789 3.39844,11.257809 l 0.002,0.002 0.002,0.002 c 2.30909,2.68971 5.59541,4.03906 9.71289,4.03906 h 8.99414 v -6.6875 h -8.33789 c -2.01767,0 -3.4506,-0.692143 -4.48047,-2.124998 -1.03017,-1.43329 -1.58203,-3.585846 -1.58203,-6.488281 V 65.169922 Z m 1,1 h 14.64062 v 25.824219 c 0,3.028117 0.5636,5.394447 1.76953,7.072265 1.20625,1.678254 3.03288,2.541014 5.29297,2.541014 h 7.33789 v 4.6875 h -7.99414 c -3.90334,0 -6.84056,-1.22639 -8.95508,-3.68945 -2.08991,-2.48713 -3.16015,-6.000603 -3.16015,-10.611329 V 70.419922 h -8.93164 z"
           id="path574" />
      </g>
      <g
         id="path539">
        <path
           style="color:#000000;-inkscape-font-specification:'Hack, Normal';fill:#00a400;-inkscape-stroke:none"
           d="m 200.41869,122.54561 q -2.95313,0 -5.94271,-0.54687 -2.95313,-0.54688 -5.83334,-1.45834 v -6.63542 q 2.77084,1.3125 5.83334,2.29688 3.09896,0.98437 6.30729,0.98437 3.93751,0 6.12501,-1.5677 2.1875,-1.56771 3.0625,-4.37501 0.91146,-2.77083 0.91146,-6.38021 v -4.84896 q -1.64063,3.5 -4.44792,5.14063 -2.80729,1.64062 -6.59896,1.64062 -4.33855,0 -7.36459,-1.85937 -3.02604,-1.85938 -4.88542,-4.92188 -1.82292,-3.098958 -2.66146,-6.81771 -0.83854,-3.75521 -0.83854,-7.473962 0,-3.718752 0.83854,-7.437504 0.83854,-3.718751 2.69792,-6.781253 1.85938,-3.09896 4.88542,-4.958336 3.0625,-1.859376 7.4375,-1.859376 3.6823,0 6.41667,1.531251 2.73438,1.531251 4.52084,4.885419 l 0.65625,-5.286461 h 6.05208 v 38.062522 q 0,8.56771 -4.08333,13.59896 -4.04688,5.06771 -13.08855,5.06771 z m 0.76563,-21.32813 q 4.77604,0 7.21875,-3.973963 2.47917,-3.973961 2.47917,-11.557298 0,-2.442709 -0.36459,-5.104169 -0.36458,-2.661459 -1.38541,-4.958335 -0.98438,-2.333335 -2.91667,-3.791669 -1.93229,-1.458334 -5.06771,-1.458334 -4.84896,0 -7.43751,3.864585 -2.55208,3.864586 -2.55208,11.375006 0,7.583337 2.625,11.593755 2.625,4.010422 7.40105,4.010422 z"
           id="path578" />
        <path
           style="color:#000000;-inkscape-font-specification:'Hack, Normal';fill:#004400;-inkscape-stroke:none"
           d="m 199.94531,64.185547 c -2.98749,0 -5.56531,0.639195 -7.69726,1.933594 h -0.002 c -2.084,1.280534 -3.77428,2.9962 -5.05273,5.126953 -1.26818,2.089323 -2.18802,4.402792 -2.75781,6.929687 -0.5669,2.514053 -0.84961,5.030128 -0.84961,7.546875 0,2.516747 0.28293,5.0443 0.84961,7.582031 v 0.002 c 0.56957,2.525935 1.47614,4.84851 2.71875,6.960943 l 0.002,0.004 0.002,0.002 c 1.27874,2.10614 2.96802,3.80811 5.05078,5.08789 2.10817,1.29538 4.66317,1.93359 7.62696,1.93359 2.59989,0 4.89537,-0.56576 6.85156,-1.70898 1.5018,-0.87768 2.68186,-2.25001 3.69531,-3.86524 v 3.14258 c 0,2.36416 -0.29921,4.43861 -0.88672,6.22461 l -0.002,0.004 v 0.004 c -0.55598,1.78377 -1.50782,3.13598 -2.87695,4.11719 -1.34288,0.96239 -3.27534,1.47266 -5.83399,1.47266 -2.08775,0 -4.13773,-0.31977 -6.15625,-0.96094 -2.02095,-0.64971 -3.94375,-1.40665 -5.76953,-2.27148 l -0.71484,-0.3379 v 7.79102 l 0.34961,0.11133 c 1.93958,0.61379 3.90354,1.10431 5.89258,1.47265 h 0.002 c 2.02172,0.36983 4.03163,0.55469 6.03125,0.55469 6.11867,0 10.66507,-1.73452 13.47656,-5.25195 2.80973,-3.46199 4.19531,-8.12283 4.19531,-13.91406 V 65.316406 h -6.99218 l -0.55079,4.4375 c -1.1037,-1.695652 -2.37853,-3.097447 -3.9414,-3.972656 -1.9064,-1.067584 -4.13599,-1.595703 -6.66016,-1.595703 z m 0,1 c 2.38556,0 4.43245,0.494668 6.17188,1.46875 1.72762,0.967469 3.16816,2.513041 4.32422,4.683594 l 0.74218,1.394531 0.79688,-6.416016 h 5.10937 v 37.562504 c 0,5.63236 -1.33599,10.03686 -3.9707,13.2832 l -0.002,0.002 v 0.002 c -2.58462,3.23658 -6.76486,4.8789 -12.69922,4.8789 -1.93789,0 -3.88718,-0.17777 -5.85156,-0.53711 -1.83044,-0.33897 -3.63557,-0.80412 -5.42383,-1.35547 v -5.51367 c 1.66209,0.75381 3.36819,1.4568 5.17969,2.03906 h 0.002 c 2.11342,0.67132 4.26896,1.00782 6.45898,1.00782 2.69136,0 4.84223,-0.53228 6.41602,-1.66016 1.54753,-1.10907 2.63736,-2.67352 3.24805,-4.63281 0.62615,-1.90669 0.93554,-4.08409 0.93554,-6.5293 v -4.84961 l -0.95312,-0.210936 c -1.05998,2.261276 -2.47362,3.882916 -4.24805,4.919926 -1.78686,1.04426 -3.89004,1.57226 -6.3457,1.57226 -2.82094,0 -5.17697,-0.60138 -7.10352,-1.78515 -1.95195,-1.1994 -3.51831,-2.77868 -4.71875,-4.755864 l 0.002,0.0078 c -1.18764,-2.018996 -2.05501,-4.242162 -2.60351,-6.673828 v -0.002 c -0.55109,-2.468555 -0.82617,-4.922336 -0.82617,-7.363281 0,-2.441584 0.27501,-4.883846 0.82617,-7.328125 0.54806,-2.430536 1.42642,-4.637434 2.63672,-6.630859 l 0.002,-0.002 c 1.20023,-2.000375 2.76719,-3.590601 4.7168,-4.789063 l 0.002,-0.002 c 1.95098,-1.183915 4.33098,-1.785156 7.17578,-1.785156 z m 1.20313,4.6875 c -3.36547,0 -6.04749,1.391567 -7.85352,4.08789 l -0.002,0.002 c -1.78346,2.700675 -2.63477,6.586814 -2.63477,11.65039 0,5.113245 0.87795,9.07275 2.70703,11.867188 1.8261,2.789875 4.49438,4.236335 7.81836,4.236335 3.32216,0 5.93991,-1.43672 7.64453,-4.208992 v -0.002 c 1.72778,-2.77041 2.55469,-6.711137 2.55469,-11.820312 0,-1.653347 -0.12329,-3.377192 -0.36914,-5.171875 -0.24845,-1.813719 -0.72151,-3.510057 -1.41992,-5.083985 l -0.002,-0.0039 c -0.6873,-1.627269 -1.71742,-2.968186 -3.07422,-3.992187 -1.39199,-1.050557 -3.20135,-1.560547 -5.36914,-1.560547 z m 0,1 c 2.01276,0 3.58122,0.463535 4.76562,1.357422 1.21844,0.919573 2.1326,2.105917 2.75781,3.58789 l 0.002,0.0039 0.002,0.0039 c 0.66042,1.48594 1.10854,3.092922 1.3457,4.824219 0.24027,1.753926 0.36133,3.431561 0.36133,5.035156 0,5.001066 -0.82711,8.764842 -2.40429,11.292969 v 0.002 l -0.002,0.002 c -1.55234,2.525455 -3.74762,3.734377 -6.79297,3.734377 -3.04408,0 -5.30852,-1.225856 -6.98242,-3.783205 -1.67091,-2.552781 -2.54297,-6.322452 -2.54297,-11.320313 0,-4.949043 0.8483,-8.645545 2.4668,-11.097656 l 0.002,-0.002 c 1.64524,-2.454816 3.9227,-3.640625 7.02149,-3.640625 z"
           id="path580" />
      </g>
      <g
         id="path541">
        <path
           style="color:#000000;-inkscape-font-specification:'Hack, Normal';fill:#00a400;-inkscape-stroke:none"
           d="m 242.60101,58.26954 q -1.09375,0 -1.09375,-1.093751 v -6.307294 q 0,-1.093751 1.09375,-1.093751 h 5.25 q 1.09376,0 1.09376,1.093751 v 6.307294 q 0,1.093751 -1.09376,1.093751 z m 12.25001,48.52606 q -6.01563,0 -9.33334,-3.86458 -3.28125,-3.901044 -3.28125,-10.937506 V 70.920587 h -8.9323 v -5.250002 h 15.64064 v 26.322929 q 0,4.447919 1.67708,6.781253 1.67708,2.333333 4.88542,2.333333 h 7.83854 v 5.6875 z"
           id="path584" />
        <path
           style="color:#000000;-inkscape-font-specification:'Hack, Normal';fill:#004400;-inkscape-stroke:none"
           d="m 242.60156,49.275391 c -0.44791,0 -0.87368,0.119779 -1.17383,0.419921 -0.30014,0.300143 -0.41992,0.725912 -0.41992,1.173829 v 6.30664 c 0,0.447917 0.11978,0.873686 0.41992,1.173828 0.30015,0.300143 0.72592,0.419922 1.17383,0.419922 h 5.25 c 0.44792,0 0.87369,-0.119779 1.17383,-0.419922 0.30015,-0.300142 0.41992,-0.725911 0.41992,-1.173828 v -6.30664 c 0,-0.447918 -0.11977,-0.873686 -0.41992,-1.173829 -0.30014,-0.300142 -0.72591,-0.419921 -1.17383,-0.419921 z m 0,1 h 5.25 c 0.28126,0 0.40236,0.06251 0.4668,0.126953 0.0644,0.06444 0.12695,0.185547 0.12695,0.466797 v 6.30664 c 0,0.28125 -0.0625,0.402356 -0.12695,0.466797 -0.0644,0.06444 -0.18554,0.126953 -0.4668,0.126953 h -5.25 c -0.28125,0 -0.40235,-0.06251 -0.46679,-0.126953 -0.0644,-0.06444 -0.12696,-0.185547 -0.12696,-0.466797 v -6.30664 c 0,-0.281251 0.0625,-0.402357 0.12696,-0.466797 0.0644,-0.06444 0.18554,-0.126953 0.46679,-0.126953 z m -9.79687,14.894531 v 6.25 h 8.93164 v 20.574219 c 0,4.76869 1.11561,8.543789 3.39844,11.257809 l 0.002,0.002 0.002,0.002 c 2.30909,2.68971 5.59541,4.03906 9.71289,4.03906 h 8.99414 v -6.6875 h -8.33789 c -2.01768,0 -3.4506,-0.692145 -4.48047,-2.124998 -1.03017,-1.43329 -1.58203,-3.585846 -1.58203,-6.488281 V 65.169922 Z m 1,1 h 14.64062 v 25.824219 c 0,3.028117 0.56556,5.394447 1.77149,7.072265 1.20624,1.678254 3.03091,2.541014 5.29101,2.541014 h 7.33789 v 4.6875 h -7.99414 c -3.90334,0 -6.84056,-1.22639 -8.95508,-3.68945 -2.08991,-2.48713 -3.16015,-6.000603 -3.16015,-10.611329 V 70.419922 h -8.93164 z"
           id="path586" />
      </g>
      <g
         id="path543">
        <path
           style="color:#000000;-inkscape-font-specification:'Hack, Normal';fill:#00a400;-inkscape-stroke:none"
           d="m 275.59583,65.670585 h 6.05208 l 0.65626,6.125003 q 3.68229,-7.109379 11.99479,-7.109379 12.50522,0 12.50522,16.515633 v 25.302098 h -6.7448 V 81.201842 q 0,-5.505211 -1.93229,-8.093754 -1.89583,-2.588542 -5.90625,-2.588542 -4.77605,0 -7.36459,3.390626 -2.55208,3.354168 -2.55208,9.51563 v 23.078138 h -6.70834 z"
           id="path590" />
        <path
           style="color:#000000;-inkscape-font-specification:'Hack, Normal';fill:#004400;-inkscape-stroke:none"
           d="m 294.29883,64.185547 c -5.17076,0 -9.06512,2.176008 -11.64063,6.220703 l -0.56054,-5.236328 h -7.00196 v 0.5 41.333988 h 7.70899 V 83.425781 c 0,-4.038604 0.83717,-7.094194 2.44922,-9.21289 1.63568,-2.142524 3.90108,-3.19336 6.96679,-3.19336 2.56604,0 4.33933,0.794663 5.50391,2.384766 v 0.002 h 0.002 c 1.18655,1.589532 1.83203,4.183284 1.83203,7.794922 v 25.802741 h 7.7461 V 81.201172 c 0,-5.568303 -1.04748,-9.807003 -3.22852,-12.6875 -2.18104,-2.880497 -5.49888,-4.328125 -9.77734,-4.328125 z m 0,1 c 4.05834,0 6.9931,1.306932 8.98047,3.93164 1.98736,2.624709 3.02539,6.641877 3.02539,12.083985 v 24.802738 h -5.7461 V 81.201172 c 0,-3.727763 -0.64209,-6.528765 -2.03125,-8.390625 -1.36334,-1.858916 -3.52722,-2.791016 -6.30664,-2.791016 -3.30235,0 -5.94602,1.209585 -7.76172,3.587891 -1.79072,2.353523 -2.65429,5.641689 -2.65429,9.818359 V 106.00391 H 276.0957 V 66.169922 h 5.10352 l 0.78515,7.330078 0.76368,-1.474609 c 2.38419,-4.603145 6.15166,-6.839844 11.55078,-6.839844 z"
           id="path592" />
      </g>
      <g
         id="path545">
        <path
           style="color:#000000;-inkscape-font-specification:'Hack, Normal';fill:#00a400;-inkscape-stroke:none"
           d="m 332.98125,107.56123 q -12.4323,0 -12.4323,-16.515633 V 65.743502 h 6.70834 v 25.302095 q 0,10.682293 7.98438,10.682293 4.66667,0 7.21875,-3.354164 2.55209,-3.390627 2.55209,-9.552088 V 65.743502 h 6.74479 v 40.760438 h -6.08854 l -0.65625,-6.12501 q -3.64584,7.1823 -12.03126,7.1823 z"
           id="path596" />
        <path
           style="color:#000000;-inkscape-font-specification:'Hack, Normal';fill:#004400;-inkscape-stroke:none"
           d="m 320.04883,65.244141 v 25.800781 c 0,5.567935 1.04061,9.806938 3.20898,12.687498 2.16837,2.88057 5.46786,4.32813 9.72266,4.32813 5.2124,0 9.12028,-2.19525 11.67969,-6.27735 l 0.55859,5.22071 h 7.03906 V 65.244141 h -7.74609 v 23.578125 c 0,4.038603 -0.83729,7.10585 -2.45117,9.25 -1.61231,2.117654 -3.82814,3.156254 -6.81836,3.156254 -2.54997,0 -4.35286,-0.81836 -5.58789,-2.470708 -1.23503,-1.652346 -1.89649,-4.214416 -1.89649,-7.71289 V 65.244141 Z m 1,1 h 5.70898 v 24.800781 c 0,3.623047 0.66928,6.404086 2.09571,8.3125 1.42642,1.908418 3.61572,2.871098 6.38867,2.871098 3.2309,0 5.82492,-1.19975 7.61523,-3.552739 h 0.002 v -0.002 c 1.78891,-2.376682 2.65235,-5.674892 2.65235,-9.851562 V 66.244141 h 5.74609 v 39.759769 h -5.14062 l -0.78711,-7.355473 -0.76367,1.503903 c -2.36053,4.65024 -6.13842,6.90821 -11.58594,6.90821 -4.03339,0 -6.94811,-1.30505 -8.92383,-3.92969 -1.97572,-2.62464 -3.00781,-6.643463 -3.00781,-12.085938 z"
           id="path598" />
      </g>
      <g
         id="path547">
        <path
           style="color:#000000;-inkscape-font-specification:'Hack, Normal';fill:#00a400;-inkscape-stroke:none"
           d="m 388.32504,106.7956 q -6.01563,0 -9.33334,-3.86458 -3.28125,-3.901044 -3.28125,-10.937506 V 55.024747 h -10.75522 v -5.250003 h 17.46355 v 42.21877 q 0,4.447919 1.67709,6.781253 1.67708,2.333333 4.88542,2.333333 h 7.83854 v 5.6875 z"
           id="path602" />
        <path
           style="color:#000000;-inkscape-font-specification:'Hack, Normal';fill:#004400;-inkscape-stroke:none"
           d="m 364.45508,49.275391 v 6.25 h 10.75586 v 36.46875 c 0,4.76869 1.11561,8.543789 3.39843,11.257809 l 0.002,0.002 0.002,0.002 c 2.30909,2.68971 5.59345,4.03906 9.71094,4.03906 h 8.99609 v -6.6875 h -8.33984 c -2.01768,0 -3.44866,-0.692145 -4.47852,-2.124998 -1.03018,-1.43329 -1.58398,-3.585847 -1.58398,-6.488281 v -42.71875 z m 1,1 h 16.46289 v 41.71875 c 0,3.028118 0.56555,5.394447 1.77148,7.072265 1.20625,1.678254 3.03092,2.541014 5.29102,2.541014 h 7.33984 v 4.6875 h -7.99609 c -3.90335,0 -6.83861,-1.22639 -8.95313,-3.68945 -2.08991,-2.48713 -3.16015,-6.000603 -3.16015,-10.611329 v -37.46875 h -10.75586 z"
           id="path604" />
      </g>
      <g
         id="path549">
        <path
           style="color:#000000;-inkscape-font-specification:'Hack, Normal';fill:#00a400;-inkscape-stroke:none"
           d="m 433.27819,106.7956 q -6.01563,0 -9.33334,-3.86458 -3.28125,-3.901044 -3.28125,-10.937506 V 55.024747 h -10.75521 v -5.250003 h 17.46355 v 42.21877 q 0,4.447919 1.67708,6.781253 1.67709,2.333333 4.88542,2.333333 h 7.83855 v 5.6875 z"
           id="path608" />
        <path
           style="color:#000000;-inkscape-font-specification:'Hack, Normal';fill:#004400;-inkscape-stroke:none"
           d="m 409.4082,49.275391 v 6.25 h 10.75586 v 36.46875 c 0,4.76869 1.11562,8.543789 3.39844,11.257809 l 0.002,0.002 0.002,0.002 c 2.30909,2.68971 5.59345,4.03906 9.71093,4.03906 h 8.9961 v -6.6875 h -8.33985 c -2.01767,0 -3.44864,-0.692143 -4.47851,-2.124998 -1.03018,-1.43329 -1.58399,-3.585846 -1.58399,-6.488281 v -42.71875 z m 1,1 h 16.46289 v 41.71875 c 0,3.028117 0.56556,5.394447 1.77149,7.072265 1.20625,1.678254 3.03092,2.541014 5.29101,2.541014 h 7.33985 v 4.6875 h -7.9961 c -3.90334,0 -6.83861,-1.22639 -8.95312,-3.68945 -2.08991,-2.48713 -3.16016,-6.000603 -3.16016,-10.611329 V 54.525391 H 410.4082 Z"
           id="path610" />
      </g>
      <g
         id="path551">
        <path
           style="color:#000000;-inkscape-font-specification:'Hack, Normal';fill:#666666;-inkscape-stroke:none"
           d="m 470.90322,78.212258 q -2.47917,0 -4.19271,-1.713543 -1.71354,-1.713542 -1.71354,-4.447919 0,-2.734376 1.71354,-4.447918 1.71354,-1.713543 4.19271,-1.713543 2.47917,0 4.19271,1.713543 1.71354,1.713542 1.71354,4.447918 0,2.734377 -1.71354,4.447919 -1.71354,1.713543 -4.19271,1.713543 z m 0,26.104182 q -2.47917,0 -4.19271,-1.71355 -1.71354,-1.71354 -1.71354,-4.447915 0,-2.734376 1.71354,-4.447918 1.71354,-1.713543 4.19271,-1.713543 2.47917,0 4.19271,1.713543 1.71354,1.713542 1.71354,4.447918 0,2.734375 -1.71354,4.447915 -1.71354,1.71355 -4.19271,1.71355 z"
           id="path614" />
        <path
           style="color:#000000;-inkscape-font-specification:'Hack, Normal';fill:#002c00;-inkscape-stroke:none"
           d="m 470.90234,65.388672 c -1.76797,0 -3.31731,0.633713 -4.54492,1.861328 -1.23639,1.23639 -1.86133,2.873422 -1.86133,4.800781 0,1.927361 0.62494,3.564391 1.86133,4.800781 1.22761,1.227616 2.77695,1.861329 4.54492,1.861329 1.76798,0 3.31927,-0.633713 4.54688,-1.861329 1.23639,-1.23639 1.85937,-2.87342 1.85937,-4.800781 0,-1.927359 -0.62298,-3.564391 -1.85937,-4.800781 -1.22761,-1.227615 -2.7789,-1.861328 -4.54688,-1.861328 z m 0,1 c 1.53759,0 2.78274,0.511253 3.83985,1.568359 1.04833,1.04833 1.5664,2.375279 1.5664,4.09375 0,1.718472 -0.51807,3.04542 -1.5664,4.09375 -1.05711,1.057107 -2.30226,1.56836 -3.83985,1.56836 -1.53758,0 -2.78078,-0.511253 -3.83789,-1.56836 -1.04833,-1.04833 -1.56836,-2.375278 -1.56836,-4.09375 0,-1.718471 0.52003,-3.04542 1.56836,-4.09375 1.05711,-1.057106 2.30031,-1.568359 3.83789,-1.568359 z m 0,25.105469 c -1.76797,0 -3.31731,0.63176 -4.54492,1.859375 -1.23639,1.23639 -1.86133,2.873421 -1.86133,4.800781 0,1.927363 0.62494,3.566343 1.86133,4.802733 1.22761,1.22762 2.77695,1.85938 4.54492,1.85938 1.76798,0 3.31927,-0.63176 4.54688,-1.85938 1.23639,-1.23639 1.85937,-2.87537 1.85937,-4.802733 0,-1.92736 -0.62298,-3.564391 -1.85937,-4.800781 -1.22761,-1.227615 -2.7789,-1.859375 -4.54688,-1.859375 z m 0,1 c 1.53759,0 2.78274,0.509299 3.83985,1.566406 1.04833,1.04833 1.5664,2.375279 1.5664,4.09375 0,1.71847 -0.51807,3.047373 -1.5664,4.095703 -1.05711,1.05711 -2.30226,1.56641 -3.83985,1.56641 -1.53758,0 -2.78078,-0.5093 -3.83789,-1.56641 -1.04833,-1.04833 -1.56836,-2.377233 -1.56836,-4.095703 0,-1.718471 0.52003,-3.04542 1.56836,-4.09375 1.05711,-1.057107 2.30031,-1.566406 3.83789,-1.566406 z"
           id="path616" />
      </g>
      <g
         id="path553">
        <path
           style="color:#000000;-inkscape-font-specification:'Hack, Normal';fill:#666666;-inkscape-stroke:none"
           d="m 535.21576,75.878923 q -0.14583,4.083335 -0.65625,7.07292 -0.47396,2.989585 -1.82292,5.359378 -2.625,5.286461 -8.64063,5.286461 -2.88021,0 -4.99479,-1.239584 -1.89584,-1.203126 -4.59375,-4.885419 -2.88021,-4.010419 -4.19271,-4.994794 -1.4948,-1.057293 -2.8073,-1.057293 -2.80729,0 -3.97396,2.625002 -1.23958,3.062501 -1.53125,9.296879 h -5.6875 q 0.14583,-7.546878 2.47917,-12.395839 3.02604,-5.213544 8.53125,-5.213544 2.66146,0 4.8125,1.276042 1.09375,0.65625 2.33334,1.895834 1.27604,1.203126 2.44271,2.843752 2.00521,2.734376 3.82812,4.557293 1.53125,1.604168 3.20834,1.604168 2.91667,0 4.19271,-2.953127 1.3125,-2.989584 1.38542,-9.078129 z"
           id="path620" />
        <path
           style="color:#000000;-inkscape-font-specification:'Hack, Normal';fill:#002c00;-inkscape-stroke:none"
           d="m 507.32422,75.232422 c -3.82797,0 -6.87945,1.873344 -8.96289,5.46289 l -0.01,0.01758 -0.008,0.01758 c -1.59774,3.3203 -2.43112,7.520882 -2.5293,12.601562 l -0.01,0.509766 h 6.67383 l 0.0234,-0.476563 c 0.19278,-4.120467 0.70512,-7.175713 1.49024,-9.121093 0.71734,-1.610739 1.80158,-2.324219 3.51562,-2.324219 0.74024,0 1.5762,0.302718 2.51563,0.966797 6.3e-4,4.49e-4 0.001,-4.5e-4 0.002,0 0.75595,0.56952 2.16984,2.222572 4.07617,4.876953 l 0.002,0.002 v 0.002 c 1.81626,2.478958 3.36232,4.143476 4.73046,5.011719 l 0.006,0.0059 0.008,0.0039 c 1.49516,0.876476 3.25618,1.308594 5.24804,1.308594 4.15591,0 7.2681,-1.903604 9.08594,-5.5625 0.92474,-1.631134 1.54827,-3.469603 1.87109,-5.505859 0.34483,-2.021427 0.56439,-4.396377 0.66211,-7.132813 l 0.0195,-0.517578 h -0.51953 -6.17968 l -0.008,0.494141 c -0.0482,4.024085 -0.51565,7.001036 -1.34179,8.882812 l -0.002,0.002 c -0.79567,1.841418 -1.95868,2.652344 -3.73437,2.652344 -0.95864,0 -1.88782,-0.445724 -2.8457,-1.449219 l -0.004,-0.0039 -0.004,-0.0039 c -1.19028,-1.190287 -2.45171,-2.689646 -3.77539,-4.494141 l -0.004,-0.0059 c -0.79008,-1.110322 -1.61934,-2.078049 -2.49219,-2.902344 l -0.004,-0.0039 c -0.84555,-0.845033 -1.65034,-1.501533 -2.42578,-1.966797 h -0.002 c -1.51185,-0.896861 -3.21415,-1.347656 -5.06836,-1.347656 z m 0,1 c 1.6944,0 3.20239,0.402504 4.55859,1.207031 0.68101,0.408903 1.42955,1.013536 2.23438,1.818359 l 0.006,0.0059 0.006,0.0059 c 0.82349,0.77644 1.61561,1.698902 2.37695,2.769531 l 0.002,0.002 0.002,0.0039 c 1.3454,1.83464 2.6346,3.367953 3.87109,4.605469 1.08378,1.135393 2.29088,1.759765 3.56836,1.759765 2.11266,0 3.74649,-1.156874 4.65234,-3.251953 v -0.002 c 0.88103,-2.007686 1.30821,-4.961385 1.39063,-8.777344 h 4.67578 c -0.10603,2.455387 -0.29108,4.669754 -0.60156,6.488281 v 0.0039 0.002 c -0.30769,1.940779 -0.89663,3.668225 -1.76368,5.191406 l -0.008,0.01172 -0.006,0.01172 c -1.68233,3.388036 -4.32941,5.009765 -8.19336,5.009765 -1.84498,0 -3.41165,-0.394522 -4.73437,-1.167969 -1.158,-0.737189 -2.67122,-2.324648 -4.44727,-4.748046 l -0.004,-0.0039 c -1.92732,-2.683201 -3.30045,-4.353753 -4.29493,-5.099609 l -0.006,-0.0039 -0.006,-0.0039 c -1.05286,-0.744701 -2.08645,-1.15039 -3.09571,-1.15039 -2.02737,0 -3.59341,1.035864 -4.43164,2.921875 l -0.004,0.0078 -0.002,0.0078 c -0.82802,2.045711 -1.30835,5.067177 -1.52148,8.984375 h -4.6836 c 0.14474,-4.720908 0.92071,-8.637325 2.37305,-11.66211 1.95014,-3.34846 4.58048,-4.947265 8.08594,-4.947265 z"
           id="path622" />
      </g>
      <g
         id="path555">
        <path
           style="color:#000000;-inkscape-font-specification:'Hack, Normal';fill:#666666;-inkscape-stroke:none"
           d="m 558.33033,106.50394 q -0.4375,-0.0729 -2.26042,-0.32813 -1.82291,-0.29166 -3.68229,-0.69271 -3.42708,-0.76562 -7.25521,-2.33333 v -6.562504 q 1.96875,1.203126 3.71875,2.041668 1.75,0.802084 3.64584,1.421876 3.60937,1.20313 6.92708,1.27604 V 84.628927 q -3.28125,-0.583333 -6.01563,-1.640625 -2.69791,-1.093751 -4.59375,-2.807293 -3.68229,-3.31771 -3.68229,-8.822921 0,-5.687503 3.86458,-9.114588 3.82813,-3.390627 9.33334,-3.901044 v -8.567712 h 6.5625 v 8.567712 q 0.0365,0.07292 1.53126,0.291667 1.53125,0.182292 2.88021,0.4375 1.49479,0.291667 2.98958,0.656251 1.49479,0.364583 3.02604,0.838542 v 6.307295 q -1.60416,-0.838543 -3.28125,-1.494793 -1.67708,-0.65625 -2.73437,-0.947917 -1.23959,-0.364583 -2.8073,-0.619792 -1.53125,-0.291667 -2.69792,-0.364583 v 15.713549 q 7.1823,1.166667 11.08334,4.666669 3.9375,3.572918 3.9375,9.078129 0,5.651044 -4.22916,9.442717 -4.19271,3.75521 -9.69793,4.08333 v 11.04688 h -6.5625 z m 1.09375,-43.130231 q -3.39062,0.145833 -5.54167,2.187501 -2.15104,2.041668 -2.15104,5.432294 0,3.171877 2.00521,4.994794 2.07813,1.859376 5.6875,2.44271 z m 4.375,37.807311 q 3.6823,-0.10938 5.90626,-2.223961 2.26042,-2.151043 2.26042,-5.687503 0,-3.53646 -2.04167,-5.359377 -2.07813,-1.859376 -6.12501,-2.552085 z"
           id="path626" />
        <path
           style="color:#000000;-inkscape-font-specification:'Hack, Normal';fill:#002c00;-inkscape-stroke:none"
           d="m 557.83008,49.275391 v 8.677734 c -3.55366,0.41609 -6.64617,1.685884 -9.16406,3.916016 -2.67912,2.375821 -4.03321,5.583368 -4.03321,9.488281 0,3.781616 1.29063,6.891449 3.84766,9.195312 1.31193,1.185501 2.89572,2.150659 4.74023,2.898438 l 0.004,0.002 0.004,0.002 c 1.73145,0.669496 3.65219,1.165235 5.69531,1.552734 v 15.765624 c -2.00372,-0.0961 -4.0867,-0.46965 -6.26953,-1.197264 h -0.002 c -1.24372,-0.4066 -2.43946,-0.87334 -3.58593,-1.398438 l -0.008,-0.0039 c -1.14644,-0.549694 -2.36837,-1.220665 -3.66601,-2.013672 l -0.75977,-0.464844 v 7.789068 l 0.31055,0.1289 c 2.57409,1.05415 5.01901,1.83981 7.33594,2.35742 h 0.002 v 0.002 c 1.24809,0.2692 2.4846,0.50136 3.70898,0.69726 h 0.006 l 0.004,0.002 c 0.98849,0.1384 1.46099,0.20898 1.83008,0.26562 v 11.04102 h 7.5625 v -11.15625 c 3.57386,-0.31518 6.78694,-1.64362 9.53125,-4.10157 2.91136,-2.61019 4.39648,-5.924313 4.39648,-9.816403 0,-3.789342 -1.38192,-6.979444 -4.10156,-9.447266 l -0.002,-0.002 C 572.6106,81.116768 568.9274,79.593898 564.29902,78.781383 V 64.017578 c 0.64058,0.06048 1.30263,0.132234 2.10547,0.285156 h 0.006 l 0.006,0.002 c 1.02849,0.167431 1.94609,0.369603 2.74804,0.605469 l 0.004,0.002 h 0.004 c 0.67752,0.186903 1.5773,0.497975 2.68555,0.931641 1.10114,0.430878 2.17697,0.92196 3.23047,1.472656 l 0.73242,0.382813 V 60.19736 l -0.35351,-0.109375 c -1.03014,-0.318854 -2.04789,-0.600143 -3.05469,-0.845704 -1.00398,-0.244874 -2.00751,-0.466165 -3.01172,-0.662109 h -0.002 -0.002 c -0.90762,-0.171712 -1.87486,-0.319022 -2.90039,-0.441406 l -0.0137,-0.002 c -0.48303,-0.07083 -0.85113,-0.130421 -1.08984,-0.175782 v -8.685546 z m 1,1 h 5.5625 v 8.185546 l 0.0527,0.105469 c 0.1447,0.289082 0.2343,0.23581 0.28711,0.257813 0.0528,0.022 0.0935,0.03456 0.13867,0.04687 0.0903,0.02464 0.19567,0.04666 0.33008,0.07227 0.26882,0.0512 0.64849,0.112098 1.15039,0.185547 h 0.006 l 0.008,0.002 c 1.01008,0.120247 1.95755,0.264028 2.84375,0.431641 0.98884,0.192945 1.97773,0.409153 2.9668,0.650391 0.87052,0.212322 1.75432,0.465542 2.64453,0.734375 v 5.15039 c -0.85587,-0.421856 -1.71354,-0.836871 -2.59961,-1.183594 -1.12477,-0.44013 -2.04414,-0.760807 -2.77539,-0.96289 l -0.008,-0.002 c -0.84563,-0.248331 -1.79393,-0.456928 -2.84766,-0.628907 l -0.0117,-0.002 c -1.03081,-0.19592 -1.94587,-0.320958 -2.74804,-0.371093 l -0.53125,-0.0332 v 16.671875 l 0.41992,0.06836 c 4.72423,0.767387 8.32236,2.295008 10.83008,4.544922 2.52893,2.295738 3.77148,5.155138 3.77148,8.705078 0,3.642628 -1.33499,6.624949 -4.0625,9.070316 -2.71951,2.43574 -5.82994,3.74458 -9.39453,3.95703 l -0.4707,0.0273 v 11.01954 h -5.5625 V 106.08 l -0.41797,-0.0703 c -0.30807,-0.0513 -1.05667,-0.1591 -2.26367,-0.32813 l -0.01,-0.002 c -1.20299,-0.19266 -2.41869,-0.42073 -3.64648,-0.68555 -2.1539,-0.48144 -4.45166,-1.23846 -6.85938,-2.20703 v -5.355472 c 1.03382,0.606691 2.0569,1.195599 3.00196,1.648437 l 0.004,0.002 0.004,0.002 c 1.18395,0.542643 2.41664,1.022675 3.69726,1.441405 2.44697,0.81566 4.806,1.25094 7.07422,1.30078 l 0.50977,0.0117 V 84.210937 l -0.41211,-0.07422 c -2.15915,-0.383848 -4.13329,-0.923787 -5.92188,-1.615235 h -0.002 c -1.7483,-0.709795 -3.22391,-1.614041 -4.4375,-2.710937 l -0.002,-0.002 c -2.35269,-2.119746 -3.51563,-4.892514 -3.51563,-8.451172 0,-3.678417 1.22166,-6.546614 3.69531,-8.740235 2.47236,-2.189795 5.46943,-3.445478 9.04883,-3.777343 l 0.45313,-0.04102 z m 1.09375,12.576171 -0.52149,0.02344 c -2.35595,0.101331 -4.33841,0.876895 -5.86328,2.324219 -1.53426,1.456254 -2.30859,3.428772 -2.30859,5.794922 0,2.219946 0.72631,4.050908 2.16992,5.363281 l 0.002,0.002 v 0.002 c 1.47326,1.318173 3.46748,2.162673 5.94141,2.5625 l 0.58008,0.09375 z m -1,1.125 v 13.798829 c -2.02904,-0.410986 -3.67706,-1.107539 -4.85352,-2.160157 -1.22779,-1.117858 -1.83984,-2.613674 -1.83984,-4.621093 0,-2.154681 0.66231,-3.804346 1.99609,-5.070313 1.2232,-1.160997 2.79906,-1.76653 4.69727,-1.947266 z m 4.375,20.789063 v 16.929685 l 0.51562,-0.0137 c 2.54746,-0.0757 4.65695,-0.85962 6.23633,-2.361328 v -0.002 c 1.60607,-1.528357 2.41406,-3.584661 2.41406,-6.048828 0,-2.453857 -0.72609,-4.41016 -2.20703,-5.732422 -1.48262,-1.32655 -3.61778,-2.199918 -6.375,-2.671875 z m 1,1.248047 c 2.30797,0.471375 4.11206,1.214676 5.29101,2.269531 h 0.002 c 1.24129,1.108292 1.87304,2.724911 1.87304,4.986328 0,2.250462 -0.69651,3.98468 -2.10351,5.324219 -1.27305,1.210439 -2.97188,1.83573 -5.0625,1.99414 z"
           id="path628" />
      </g>
    </g>
  </g>
</svg>
