<?xml version="1.0" encoding="UTF-8" standalone="no"?>
<svg
   version="1.1"
   id="hollywood-logo-light_xA0_Image_00000145748697635208621970000003549022649483043202_"
   x="0px"
   y="0px"
   viewBox="0 0 500.00002 500"
   xml:space="preserve"
   sodipodi:docname="2.svg"
   inkscape:export-filename="icon_16x16.png"
   inkscape:export-xdpi="3.072"
   inkscape:export-ydpi="3.072"
   width="500"
   height="500"
   inkscape:version="1.2 (dc2aeda, 2022-05-15)"
   xmlns:inkscape="http://www.inkscape.org/namespaces/inkscape"
   xmlns:sodipodi="http://sodipodi.sourceforge.net/DTD/sodipodi-0.dtd"
   xmlns="http://www.w3.org/2000/svg"
   xmlns:svg="http://www.w3.org/2000/svg"><defs
   id="defs147" /><sodipodi:namedview
   id="namedview145"
   pagecolor="#ffffff"
   bordercolor="#000000"
   borderopacity="0.25"
   inkscape:showpageshadow="2"
   inkscape:pageopacity="0.0"
   inkscape:pagecheckerboard="0"
   inkscape:deskcolor="#d1d1d1"
   showgrid="false"
   inkscape:zoom="2.0772654"
   inkscape:cx="98.687438"
   inkscape:cy="253.93963"
   inkscape:window-width="2417"
   inkscape:window-height="1371"
   inkscape:window-x="0"
   inkscape:window-y="25"
   inkscape:window-maximized="0"
   inkscape:current-layer="hollywood-logo-light_xA0_Image_00000145748697635208621970000003549022649483043202_" />
<style
   type="text/css"
   id="style132">
	.st0{fill:#3aad0e;}
	.st1{fill:#914d2d;}
</style>
<g
   id="g142"
   transform="translate(20.219795,2.2957857)">
	<g
   id="g140">
		<path
   class="st0"
   d="m 307.56,186.12 c 0.64,1.56 1.41,2.71 2.02,3.95 3.4,6.82 6.33,13.83 8.51,21.13 1.48,4.93 2.72,9.93 3.53,15.03 0.62,3.91 1.13,7.82 1.45,11.77 0.35,4.36 0.62,8.73 0.4,13.09 -0.19,3.85 -0.43,7.7 -0.87,11.54 -0.85,7.51 -2.39,14.87 -4.38,22.15 -0.89,3.28 -1.99,6.51 -3.62,9.5 -1.08,1.97 -2.23,3.95 -4.39,5.05 -1.85,0.94 -3.83,0.41 -5.08,-0.78 -2.66,-2.52 -3.92,-5.82 -5.13,-9.16 -1.78,-4.89 -2.6,-10.03 -3.81,-15.06 -1.92,-7.97 -4.34,-15.78 -7.1,-23.49 -1.96,-5.48 -4.1,-10.9 -6.42,-16.24 -3.11,-7.17 -6.41,-14.25 -10.05,-21.17 -2.75,-5.24 -5.61,-10.43 -8.57,-15.55 -4.27,-7.38 -8.77,-14.6 -13.51,-21.68 -2.12,-3.16 -4.27,-6.3 -6.67,-9.39 -1.2,2.75 -2.39,5.48 -3.65,8.35 -7.67,-9.39 -17.25,-15.36 -29.34,-17.09 2.88,-2.86 5.78,-5.49 8.84,-8.05 -4.66,-2.27 -9.43,-3.76 -14.3,-4.92 -3.21,-0.77 -6.46,-1.36 -9.74,-1.84 -3.26,-0.47 -6.53,-0.74 -9.8,-1.15 -1.29,-0.16 -2.61,-0.16 -3.9,-0.22 -5.26,-0.24 -10.52,-0.48 -15.78,-0.25 -3.68,0.16 -7.37,0.27 -11.05,0.46 -3.07,0.16 -6.13,0.43 -9.19,0.71 -3.87,0.36 -7.74,0.68 -11.59,1.22 -4.33,0.61 -8.66,1.17 -12.98,1.83 -3.74,0.57 -7.47,1.19 -11.21,1.76 -3.69,0.57 -7.35,1.29 -11.01,1.99 -3.47,0.66 -6.93,1.37 -10.39,2.07 -3.12,0.63 -6.24,1.23 -9.34,1.94 -5.09,1.16 -10.18,2.35 -15.25,3.59 -7.47,1.83 -14.93,3.7 -22.36,5.69 -6.45,1.73 -12.85,3.69 -19.35,5.24 -3.37,0.8 -6.82,1.3 -10.29,1.03 -2.15,-0.17 -4.26,-0.57 -6.28,-1.55 -3.52,-1.7 -4.74,-5.13 -3.85,-8.78 0.95,-3.92 3.22,-7.07 5.76,-10.11 2.1,-2.52 4.56,-4.65 6.95,-6.84 2.92,-2.67 5.98,-5.17 9.12,-7.59 3.76,-2.9 7.65,-5.61 11.63,-8.19 3.58,-2.31 7.27,-4.42 11,-6.48 4.55,-2.51 9.25,-4.69 14.01,-6.72 6.17,-2.64 12.48,-4.93 18.91,-6.86 6.52,-1.96 13.09,-3.72 19.78,-5.01 3.24,-0.62 6.46,-1.33 9.72,-1.89 2.46,-0.42 4.96,-0.68 7.44,-0.99 3.3,-0.41 6.6,-0.81 9.91,-1.19 1.02,-0.11 2.05,-0.15 3.06,-0.19 1.62,-0.07 3.24,-0.23 4.86,-0.34 8.12,-0.55 16.24,-0.49 24.37,-0.42 3.68,0.03 7.36,0.36 11.05,0.48 2.91,0.1 5.82,0.37 8.71,0.71 4.31,0.51 8.63,0.94 12.92,1.61 3.07,0.48 6.14,1 9.34,1.53 -1.34,-3.46 -3.14,-6.52 -5.19,-9.46 -2.07,-2.97 -4.46,-5.66 -6.86,-8.37 -2.19,-2.48 -4.62,-4.7 -7.05,-6.91 -3.02,-2.73 -6.17,-5.31 -9.38,-7.83 -5.92,-4.63 -12.08,-8.9 -18.36,-13.01 -4.73,-3.09 -9.56,-6.03 -14.44,-8.89 -6.58,-3.86 -13.23,-7.58 -20,-11.08 -5.75,-2.97 -11.45,-6.03 -17.28,-8.84 C 98.4,24.2 94.89,22.28 91.63,19.9 89.62,18.42 87.76,16.73 86.49,14.57 84.15,10.61 84.94,7.42 89.1,5.03 c 2.8,-1.61 5.93,-2.16 9.08,-2.66 3.35,-0.53 6.74,-0.21 10.08,-0.53 4.19,-0.4 8.33,0.22 12.49,0.13 3.34,-0.07 6.7,0.28 10.03,0.69 7.23,0.88 14.43,1.88 21.55,3.51 6.57,1.5 13.01,3.38 19.35,5.6 6.91,2.41 13.54,5.45 20.01,8.87 6.9,3.64 13.42,7.91 19.66,12.59 2.51,1.88 4.88,3.94 7.27,5.98 3.98,3.38 7.64,7.1 11.24,10.86 3.03,3.17 5.83,6.57 8.52,10.06 2.4,3.12 4.7,6.3 6.85,9.59 2.84,4.35 5.35,8.89 7.59,13.57 0.1,0.21 0.15,0.43 0.21,0.6 4.9,-1.31 9.75,-2.72 14.66,-3.88 5.73,-1.36 11.49,-2.61 17.28,-3.72 4.55,-0.87 9.12,-1.56 13.69,-2.33 2.93,-0.49 5.92,-0.65 8.88,-1 4.03,-0.48 8.07,-0.81 12.13,-1.01 1.3,-0.06 2.61,-0.1 3.91,-0.18 2.94,-0.2 5.88,-0.25 8.82,-0.25 4.45,0.01 8.9,0.2 13.32,0.54 4.48,0.34 8.95,0.91 13.4,1.58 8.8,1.33 17.38,3.49 25.72,6.56 6.31,2.33 12.5,4.97 18.08,8.84 2.38,1.65 4.45,3.57 5.96,6.07 1.54,2.55 0.73,6.33 -1.74,8.07 -3.09,2.18 -6.61,3.08 -10.28,3.65 -4.51,0.7 -9.05,0.48 -13.57,0.4 -2.3,-0.04 -4.61,-0.32 -6.9,-0.15 -2.55,0.19 -5.09,0.1 -7.63,0.22 -3.23,0.16 -6.46,0.35 -9.67,0.73 -4.15,0.48 -8.3,0.97 -12.44,1.62 -5.92,0.92 -11.78,2.03 -17.62,3.36 -5.43,1.24 -10.79,2.7 -16.14,4.24 -7.38,2.14 -14.57,4.83 -21.71,7.63 -1.56,0.61 -3.07,1.38 -4.79,2.17 6.95,1.38 13.62,2.85 20.22,4.64 5.48,1.48 10.92,3.08 16.31,4.86 6.52,2.15 12.94,4.57 19.25,7.28 5.19,2.23 10.33,4.57 15.32,7.21 5.51,2.91 10.91,6.02 16.18,9.35 4.33,2.74 8.54,5.66 12.66,8.7 3.08,2.27 6.04,4.72 8.98,7.19 5.2,4.38 10.14,9.03 14.83,13.94 2.99,3.13 5.84,6.4 8.62,9.73 4.55,5.45 8.77,11.15 12.68,17.07 2.73,4.14 5.31,8.36 7.69,12.72 1.8,3.3 3.6,6.59 5.2,9.99 2.86,6.12 5.54,12.31 7.86,18.66 2,5.48 3.79,11.02 5.34,16.63 0.95,3.45 1.73,6.94 1.89,10.56 0.09,2.05 -0.02,4.02 -0.52,5.99 -0.72,2.85 -3.34,4.06 -6.03,3.44 -3.21,-0.74 -5.79,-2.53 -8.31,-4.45 -2.43,-1.85 -4.67,-3.95 -6.7,-6.23 -2.2,-2.48 -4.59,-4.75 -6.92,-7.11 -2.9,-2.94 -5.78,-5.89 -8.76,-8.75 -2.74,-2.63 -5.54,-5.2 -8.41,-7.69 -4.62,-4.02 -9.25,-8.04 -14,-11.91 -4.97,-4.05 -9.98,-8.04 -15.07,-11.94 -5.4,-4.15 -10.92,-8.13 -16.43,-12.14 -8.26,-6 -16.76,-11.66 -25.29,-17.25 -6.57,-4.3 -13.25,-8.44 -20,-12.46 -5.03,-2.99 -10.07,-5.95 -15.42,-8.96 z"
   id="path134" />
		<path
   class="st1"
   d="m 204.16,166.07 c 9.42,0.47 17.62,3.44 24.69,9.38 2.73,2.29 5.13,4.88 7.15,7.82 0.41,0.6 0.4,1.02 0.15,1.61 -3.2,7.59 -6.19,15.26 -9.14,22.95 -5.21,13.58 -9.96,27.31 -14.4,41.16 -3.28,10.24 -6.35,20.54 -9.16,30.92 -1.67,6.17 -3.37,12.32 -4.88,18.53 -1.75,7.2 -3.52,14.39 -4.92,21.67 -0.77,4 -1.78,7.96 -2.56,11.95 -0.81,4.12 -1.48,8.28 -2.22,12.41 -0.63,3.49 -1.31,6.96 -1.89,10.45 -0.46,2.73 -0.82,5.48 -1.22,8.23 -0.48,3.28 -0.99,6.57 -1.42,9.86 -0.38,2.88 -0.64,5.77 -0.98,8.65 -0.38,3.19 -0.88,6.37 -1.15,9.56 -0.16,1.88 -0.36,3.76 -0.53,5.64 -0.3,3.41 -0.64,6.81 -0.94,10.22 -0.1,1.14 -0.17,2.29 -0.2,3.43 -0.11,3.45 -0.43,6.88 -0.58,10.33 -0.17,3.96 -0.25,7.93 -0.49,11.89 -0.29,4.59 -0.13,9.17 -0.15,13.75 -0.01,2.79 -0.16,5.57 -0.32,8.34 -0.31,5.18 -1.26,10.29 -2.92,15.22 -1.56,4.65 -3.68,9.07 -6.7,12.96 -3.52,4.53 -7.91,7.97 -13.54,9.4 -5.37,1.36 -10.65,0.71 -15.81,-1.33 -5.91,-2.35 -10.68,-6.25 -14.87,-10.89 -2.64,-2.92 -4.76,-6.23 -6.68,-9.69 -2.95,-5.32 -4.75,-11.01 -5.87,-16.93 -0.45,-2.38 -0.61,-4.83 -0.78,-7.26 -0.25,-3.61 -0.64,-7.21 -0.93,-10.82 -0.12,-1.46 -0.16,-2.93 -0.19,-4.39 -0.06,-3.06 -0.22,-6.13 -0.35,-9.18 -0.32,-7.3 -0.2,-14.61 -0.15,-21.91 0.03,-4.2 0.29,-8.41 0.47,-12.61 0.1,-2.4 0.27,-4.81 0.49,-7.21 0.28,-3.09 0.5,-6.18 0.86,-9.27 0.3,-2.57 0.47,-5.17 0.8,-7.74 0.36,-2.79 0.61,-5.59 1.12,-8.37 0.43,-2.38 0.65,-4.8 1.03,-7.2 0.45,-2.85 0.91,-5.7 1.46,-8.53 0.66,-3.39 1.45,-6.76 2.12,-10.15 0.92,-4.64 2.09,-9.23 3.25,-13.81 1.71,-6.75 3.7,-13.42 5.8,-20.06 2.08,-6.57 4.44,-13.02 6.85,-19.47 2.07,-5.51 4.42,-10.89 6.74,-16.29 1.15,-2.67 2.53,-5.24 3.71,-7.9 1.49,-3.38 3.15,-6.67 4.88,-9.93 2.97,-5.63 6.01,-11.21 9.25,-16.69 3.62,-6.12 7.36,-12.15 11.35,-18.03 3.78,-5.58 7.71,-11.04 11.81,-16.39 3.41,-4.44 6.94,-8.78 10.53,-13.08 2.1,-2.52 4.41,-4.86 6.55,-7.34 0.83,-0.96 1.73,-1.85 2.57,-2.8 0.69,-0.8 1.44,-1.33 2.31,-1.06 z"
   id="path136" />
		<path
   class="st1"
   d="m 236.94,182.91 c -8.28,-11.17 -19.18,-17.26 -33.39,-17.72 1.48,-1.48 2.94,-2.62 4.01,-4.06 1.53,-2.06 3.39,-2.17 5.65,-1.73 8.81,1.69 16.39,5.62 22.55,12.18 1.28,1.36 2.46,2.81 3.52,4.36 0.29,0.42 0.35,0.73 0.11,1.25 -0.86,1.85 -1.62,3.75 -2.45,5.72 z"
   id="path138" />
	</g>
</g>
</svg>
